<mxfile host="app.diagrams.net" modified="2024-04-15T21:18:38.843Z" agent="Mozilla/5.0 (Windows NT 10.0; Win64; x64) AppleWebKit/537.36 (KHTML, like Gecko) Chrome/123.0.0.0 Safari/537.36" etag="7vhLfe0_Rj8yNuzUGnNq" version="24.2.5" type="device">
  <diagram name="Page-1" id="5tZbrlDVT7oBviTf30Ej">
    <mxGraphModel dx="1114" dy="560" grid="1" gridSize="10" guides="1" tooltips="1" connect="1" arrows="1" fold="1" page="1" pageScale="1" pageWidth="850" pageHeight="1100" math="0" shadow="0">
      <root>
        <mxCell id="0" />
        <mxCell id="1" parent="0" />
        <mxCell id="OHi0hXQzuh8hUmMyIJb7-54" value="" style="shape=image;verticalLabelPosition=bottom;labelBackgroundColor=default;verticalAlign=top;aspect=fixed;imageAspect=0;image=data:image/png,iVBORw0KGgoAAAANSUhEUgAAAT4AAACfCAMAAABX0UX9AAAAzFBMVEX///88Oj7iWhw5Nzs2NDgyMDUwLjMsKS4xLzPhUQA0MjfiWBj8/Pz5+fn29vYtKzA/PUHhVhKQj5GHhojv7+8oJitFQ0d+fX8jICbh4eHgTgDhUwhOTFCWlZe+vb7p6enMy8zV1NXd3d5aWFumpaezsrPCwcJ3dXhhYGP53tLzv6tpaGucm52rqqxTUVX++PTne1D77ObkaDbqi2X308XkZCn0x7jrlHPupovxspnogVr54tkeGiHmdEL1zcDrl3rlai7wrJMNBhHnfFY4ZTTVAAARXUlEQVR4nO1caYOiyLIVk0UQwQVcEVFELHFprb2qq2tq5v//p8uWG4tV/d4dsW7n+VIDpHQSREacOJFMrcbAwMDAwMDAwMDAwMDAwMDAwMBwORyOh6qn8H1xvD3dn25fq57GN8Xd/aTZbE6aD1VP5FviRu7UIzTlTdVT+YY4vCXWC+3XOVY9me+H53EdYvLCEshv4oicL4T8XPV0vht+ydh69eY9W76/h8cJYb765LHq+Xwz1Juk+eryXdUT+lZQx5T16p0fLHv8Bm4y5mPZ47ewkTPma06Y+30dTzBzoAzCssfXcbhNC7bT8wS5X2n2OBwfNr+YNoNxeEsSb+f28APS585b4dDXzftpHEL+cXPhSV4vjp0mTBg4ieSyx+H11+P9RJ6kpmbkBgLaTH4gCHSzTtYeh7unl/vxhKCHk9vK5ntleJZTg4UL8ngPTYSyx+Hu+UUeTzo0tW6eWGmX4LFDGASRmGbnV7RiNy+nptyp59B8Y9kjQSq3dH5EB0T2OG2e3mS502zmjRdefal62lcCuF7T1XqDOHRTnhS4XYoxU/UT3NRR4o1Byy8lYGUxxENqrnFK5Y6nwtVKoSkz3pciTbx11OTYZBWExGLkSp6whhIELNlQKlXfsiGvM5HHfz1tcOB7r3TG1wT1L1iyqfDUDZFsm82OLL+9PxxqKsrJjDJjHNK1K3/gcyh7dOTm6XbzGvml+g5T8oSlDYQ7aCqyPx5xmWZnMpZfnu+gqZ6g9Tr3bCdHjOPN+6kDVySVSzdj+f7l/Y7wMqIaYUk3hPrr/U0mRIAxtSI/Hl6p4zsUDtkujtDvft1GKgDJS+7PjX+tw7HjP70Noh43t6fJJMONz9awhxNKun84ZXndhH7XydcV44/y3xxuUTPkT0666uvHW0cusF1zIp/OJIRHlHTf/mCR7+a2XmS7zmRy/3h3xi7PKOnKfy5lOd4WrNmwpBi/fZxvW6ASuNn8daG5Xh+Op7wO1ZHvf3y8fhLN7uqMsoQFa8Z6sd9tPmfAR0RZ5D846dIiVLMzvn/cfCWJ4o2T8p+sE9xSGtTp9uGLKRRRls6PPzjp1v4hzNe8/3IQQyoL3fa9Yhi2N0cHo9Vq5YzwxYXnzYihznJqG/DKqhX+0Ww4YOTZIeKTtYz3Netvz1+yxgF3fc+w6qvCcjgMWvCg+9McmsISXbTMnzt04LlDSfrZTQ56PwMt/DPn/06Nv/spmebQTW/1TAvwYc59/8ouiw9MmP+/z3UZzHgALAMeBYq17gPJSQ89nVN68FrXFLkgMFNzrvVp9GclmqloPBD667U7TQcf/spwvuZkXH/+lAVj9xt/D9YyFTlOggtU7UuethD11ESGy7f5IL1m60ow0jRnER+1LCketJSs9KeutNUMQ4P33ch5ziyH1QZS6IuBKo7v0Zlc9MWea67SI2PIzWuGLnnJ4dK0uuI+sa3hNvAaj35nxovW1/3kREsSHerOT+OiWnf8SRTEnxtdh/vN5l7PD4Kgt1toBZd90TICCS45x+zvvEBpJx42s/TpYthOYpujmHPidyseuGvXXbf1NFAuhpy13/uEc23qRXsGOnLz9pwBccl2qt79Vr29rgt8CEUXAi93fWQKu1oPelBtKQLJFIfb5Gjb0I2aqSeu6ekiue68cGQIkWuknmtLQNeHPWJI7ebHOKvyhZDrD2cXME6+VbvfyjIVwCHwpuXQA1RfaQ96Lu+mD9QLw7/rpwYxTGD1em0xMeZS14m1W+uJ7m653HWF1DlrU931djvSQUPcPDYzIbAjv4dONRtkJkLgAe/4q9T9tAHgORo8t6OGOApQJEkA/YTqtQK9qxnQSt0GL0gSSHPHSpTs6G9iaDVNvLYJs7YvdYsmcXw/kQacnEL6otr99qxocHJr1N6Vq+R+C1fkcgAmZb9ACP2r5yvAiQ9ne9PGv28LQXhxzYPkmqX0vdF8m4xUgRT76FZaJ6ON0J6L+dyo5XDc3I9Tg3TGT5Hr+RJvnZn4HY5+1VUeTjvreglEwn62EpurNdSTqDgHQ+wVfqMfGcPWh0nK8XReAPzfiZ/OohQdWnEgDZLRoz4AvKI4RVNRH14mk4i3RPu7tR2vcPz6zMzV2+obHaN+sfU40EDxSXX1dvwfSrrwVkOAsvNcl+Kg5whDJznjtQVBUNR0pBXZ0XCHaeKdS2F2UsrWpHp3K8vyR+R6gRhGY2Vwbu53aMffuCL3m+2VYuuF8c9CJHkxShabMUv/LvDjG4tRHATV2QybdLVAV+OR6giyIW0Wo3xGr1HJoW2l+K02ttS1bCZ+mVTsfkGp9ThO8D9h/v8a5q6QTEGyqfPTUe1AitBwA2W92ayk2WGbeLEquqST9AUMB0X8+QKY9eFLpRh4zft7VXut//W+QUsVbRmqZG/VrI/Mxbd7O9vr9QV4QuHsz2/w72COJgHIVe4pIbU8/DOZyKgDd8QbXCr4GmarI2O5SaZc+CmLEd35Jz/+9+BI0HoWYb55mLIH6dcKUf/3NgqS6KPBzuXdT7Og8/EBWqeDyH5A77XO/fLfxVLMT6s2b4OQx7SQ0he1lO7fPxDRHl/c/Ry0dM0FOqn5Id3q56veC6IHQ58yQMlrtOcjbxzVHgh9ldzWTGxCvRA8+JZBmzg70iVrVPqbSyCAVLQBFZ5ay01MOq8dC/eHR5XvpZNvt4FCNHl6Ny17j8bc7vrr/T7oeUVlVxbaYrWNhq/97Wr0G76BEhqqfIygAYnMoV7yecLFdT+0SDikukcoiXqtVc/l9AbPR1WXBNzueRdVF911W0qG86Jk+V5pNJ153UECP5pHC8UURPv8NBcLU0IpyGDy9DvP/l9ADxOE/Zk6IIaxpEUtDgjmYFE6XLVdU+BJFsmbVnFAdXxTEpQEcd03QmUkDMk9GGWUgOhRZiBf2nxbLLXw67OLS/PaDdJ2qS9w0xKPWrlCvpQGQpB3WGOgEIXPMAoJDjqRihBTyK8AWNVqD/dygbiafPV7UdgCnrhYqMKlGAV63njR40hBUQjUulKxDiFkZdjaaK2TA2Kh2kMh2YzH7LA5Y/89/nrsjHPfol7+f9G0aBNGMbel4zyzRJUJDdLPL+B5u0BATO39c0UNHSnUncE+Mh+ifWAfjbF/wss6Xv03Hy8yvSewgr3Na3LyfBnX6/KFrpf+yspGTbt9Zjhok/abren3wse9lC5cFEp06KDbCdQLPrw+/3OPdkI35cfL6xueST6ZuSoc1DW5cxACWljwzhk7/Fc4Iv71dPqiEEWQlg9tGubZ2oKDtxvml8frQ7SMJ5PJePJcgTqkUW8f8EUiQeYR+TA/0vaho6ZtUldD0hIyF/KMskbmdhocjZjnaXs4PuQtI8QBleLgrN48P70/fWlP238fqyH1rCAvEyyJRwQNAawHPd8K/5I+Q4S/OblylYZgBQN/zQnkeAlyYXWAc24k4Ct8zPMMNFZwjDUcoveqEh/PoUtFeSA4mesOti/Q22n/J+S5rogNQlSmBiH9K8rATh1tPiUaKkhGMdC/DaS9HyN6ETP4T4I+kk05sVe7Rmg+bT+L9r/ZHguC3JZIEtqWI+yHwhn2J8D7C8JfyCQBS7EVDKqg72mtGNFpJFdxffQjpTLh+xNoa4L8RUaiEukALV1xn1nYzhDZT4RBHRkkzEOZPK4FuMTpJ6dQXKAl+R0Otqj2DSrSvT+H4VLtDt4iIpmDXFP0cw+wwo4Je7gu0g+tXBQ1sCMPE2+FJTewqHt3qfcZ+15wpb4XYWFR5EtxUSGh+kh4cwuqM1Qyg1TgwgIYVyBV42Iipb9Ql8qsTD+35WH9BXWnOoxoJiKgdz1HwSnHjSMYiJGkmw/QsVTIIJG23Yg5iLZOj4UpNWydNZ9YXdvgS3DoOkGHoQy5l1TcNULLTI+vr2DQKmluo2IsSdUjaE6R2g9CLHI4/JrXbgSbpn/pZij0IGVyDJIcktWIYlm7WMhawFCQtDAQRRSol7Po56qWxrLwftcDmyoteDc+iYQjpbiaw5KDGD2fAb1JKOFoM5hZEvOhmoOnFqeTs1623XuF2Ir56W7T5wP9ktDdgo4SM5c55GumUzxcg7kiMZ+HXhkVWFd53nLtySPElBQGktiOM2PZj6johXWmslAFcyofxz7YaaH6VFSX0kcURr/OooPAgEh4IH7blG8VAW1SiFMLrDjQFvv8P5GOSFY3fDuJqoeAu5Q9ouYRK9vy8EVoFH2O1hPMJ8U0JMQcjhaiEchZSz0FmS9mKhaKhNQg1KUM3xpOaaD/WTOmaswsHLTNkAeP4NxLA7eHgmOUamFiEMpkfxUu3uRzEHj7Bj0eq6NetPUSzujq2UvNxtpUZDFUupeaD3oT2EdrHZqv1PtQ6kh0KWg+na6OkcPxK4Ibhre9dvZSw6Emshgq3fUSFd+gRHX069LYh0JZ/D5QSUMn6hmmoNEogpGa5W3RajDPyABb3OIKF+8UHpXtkJ3CHJkER6wXlHQvR3Bdxv1HD22josyCd1cldAlLYLx7Vexl1s2KSoiJgSh1oIkDqzDsIB09fVAU88t43xzePu4/QrkqU0/jOSSb6me4oLwmyXQ2HQq8S7vfFq5Gfq3hSJUE8Tz2qKOTEBu6QVYAWyINA4dnKPEUzyH9FabR+rWwF21rNfJ2wZLIlBKaiQ9REVpI5gd84j42UomLWk4zXNnEwbEFxbCMXEVsTktOqANCZ70O9rLbJ7sGACDDFJLr4uU3aqO3zomD7PJVcQNOT/WmGRbqudxj2lMcDWKmYqwLK2SNpH0JDAn3jq5As1dtC/V5BEJEtvHjR2o6KmGTcXQ6WGCJHy0+3J/Nic3aNNpeAYW8OJPPimsaLFhjsu5hPl9aAF0Oqkuo4Q24e741xe3Y+PloEUYMCIOoW6KhhhOFhw3O90kNzwlE3SGKwOgXI6QlUgEE93UllJBVXPtyevXsxaP8ilvORyNn28eSixILIlO65cCbwSqW5A1nyhEbhkgtjlDqgLTfLSKPNebe3uQ5fVQz4LVYTnQQ7aMcdYESbxvvRiCy7xWwF4MSJIHAWX1Abj/Tk8+/cy0Hpe8GwXoPyJ53g+SENrVnoZEMb8eRQldrC8hz4s4IIuVDyh4rRPvIHYe4TcI1qmcv2V4WvYsi3XThAi4LEG+5IM80qA6immka4+GAw+oriB0IzUGipla4qT4Mmzj8CWUCxsUwO7eLp5GytrxmXjA2U8dr+5KdbBGJ8yDRi4s6/zO5iip1iO93AKicvUxLN+BxwjqZ3axdOgRB97OBaF7yfWZkDOhYiWGQcE9z7IDcXUVgh+N1I8eiLg2i5Z+BCAuROX7dJUN5aZq/c4n9omYIdKz4K0mk82fkKsTcdfpzdvLbRbFy7WVmFT4lEHvQnxAL7Jc4lOgWBqFR4ReuIYlrBSTtQ/IBLedo/TztS0A24KpnLyMrszMxNp6In2UHKyx/5ub35oKG2SthEEZvmDMgkOZ4214iV8FLdCZYoJ8MsyZa4mYMv658y4vW1envDHi9PyUsAuWqSDu21xL1pSovWdsz9Gsx4EUimYfD+1utZugNIULjZ/zpvikkR5kupS6k5//OlYm+pEAMz35kfhnM/XY4exBBEYX2eklmNHVACuua4/e5RiN8/oautC1/dZ67qqOp21Z0UWiIosD1fTu6s9brJog/ZnC68IjKo/MuQu6usx6BypdviJm9Dfbtdtv1p3ZmPhrMjPB7I82xl91ed+vZ8y99azlaedtpd7uzs5rs/xTUaFOimmcCGlKGK2dZ3xEG2lxVeY35HQEbOcD9X157/xpgy4H3K/yq/PtiS/AWht8GFNarL5C+JWCF1aj0f2rwXYFaDsX/ry6G80B7S8A10Ptvh3mq9gGO8Zb/A1ZDMYbU/nwsQw6L7TLBtWyLYGBgYGBgYGBgYGBgYGBgYGBgYGBgYGBgYGBgYGBgYGCoHP8BVwljXoReWSMAAAAASUVORK5CYII=;" vertex="1" parent="1">
          <mxGeometry x="209" y="351" width="178" height="89" as="geometry" />
        </mxCell>
        <mxCell id="OHi0hXQzuh8hUmMyIJb7-6" value="" style="rounded=0;whiteSpace=wrap;html=1;" vertex="1" parent="1">
          <mxGeometry x="200" y="20" width="450" height="420" as="geometry" />
        </mxCell>
        <mxCell id="OHi0hXQzuh8hUmMyIJb7-4" value="" style="shape=image;verticalLabelPosition=bottom;labelBackgroundColor=default;verticalAlign=top;aspect=fixed;imageAspect=0;image=data:image/png,iVBORw0KGgoAAAANSUhEUgAAAbUAAABzCAMAAAAosmzyAAABsFBMVEX///8AAACee//m5uagg++qqqr7+/vW1tabff9paWlDQ0Ps7Ox3d3dZWVmx5/yu6fxfX1+54f0yyvff3989wviDg4M5xfis6/u44v3AwMAuzfeTg/59fX02x/hIuvkyzfNBv/ix6/Y7zelFvPmjhfiShP5Mt/ltzbQ+zeY3ze1ezcRRzdKAzaBLzdiZmZmXgP9yza95zadXzctkzb4TExM4WnU2NjYgICC26/FGzd6TzIxewdaLif6LzJRbvOJixssYP0aczIJcv9yNdNOg3epgw9Jjx8hSuOahzX2tzHCNgNxTteqXo/3Hx8eyzGugoKC+zF49PT0pKSmxzWzDzFkxTU1csLFQqrdGq8NIpshRn8gtSFlzgb54g9OBfNKFcL9YtbWZrf+ryuBcbHk+Z2VtgpFKgn1/nK1XlY0rOjeNsMIySkViq5w8SlCbxthPY2tDY1laiHZnm4I0RTt5tJBIYE+k0tdhd3lbemB2j45DYXxQr/yVxNhsj24tNi1+pXY+eoKUqr6Ru4Fbb1BLlZd1i1+EnGNFTDahuW9YYUEtREFxe0uKlFSlrVpyvqW4vFbA82JWAAAQcElEQVR4nO2d+3sTxxWGmbpaRZbkm6zYIjbGoWCwiWJiRQJTTOxiY4cKY8UJvaY0gRCTGHIrKXVKm15ybem/3Jm9zpk5Z3Yl78pPnsz3G3hvmne/mXPOzuweO3YIObFKdz+rFNRhcRpB98vF7scG+vxTfjyqxTc+Ss2Jp22pZaYOe/Ott9667elXrn7t6TeefotT41b73e+53nb1C11/sNQyE2/8OwsLL7300qVLZ8++eO7czMzxsbGx6ennx8dPnjx16sSJE6+i1BzGHv3x50KnT59+4eWXn3vuJ4p+aqllJafF7r6iUOPYpp8PqJ05g1OrM/YOoKZCs9Sy0zZjG71Q41Z7d/KXPrUXLLW+ymlwq6nU3A4yhlqVW23UUjsa1YXVDNROENSKwmoRtZcttT6KN/57r3jULnnUZpJRmxJWs9SORlXWmCeoCWgktQHG7k0CanoIaallJGE1mVoUjAhq427gj1IrMTY6aqkdjUrcavMCWkBNYDt+HKRrGLWKZzVL7ShUEVZTqKmBP0qtwBqT1mtHpAJrLXnUgmEtGbU8Y/cttSMSb/z35yE1LMnWqZVZZ1KmhqdrllomGnGt1j01YbWhiBqVZFtqWUhYLaJGl0Y0aoOsOTlpqR2NymxvyR3WVK+Fgb+XrqnUaow9GLLUjkZtxj7UqSGlEZXaDtsfUryGBiOWWgZqsg+WMGrHY7zGrfbQUjsi1VyrQWovgoJWUBpRqDXZ/rCldkTiVptb8oIRuaCFlEYgtZywmqV2NOKN/yyghpRGaGoN9si1mqXWfzkd9tFcRC0I/NHSCKC27VoNeu0FS60/cq2mU0OTbECNsXeHh4DXyMDfUktZTsuzGloaGTNQq4dWs9T6rrpvtSiEpOcfyNSKjH0+YakdjRzGPl7shVqVsWvD0bAWUcOGNUstXVVZg1ttDk2yTdTEvIMJlJr1WuYqelaLoRaGkBE1brWJYYQaHkJaaqlqijUWSWp6QSukxq32xLWapdZ/DQirYdTU0ohKrcAa3Go/Nq85xWKlUiwe9VK8krCaR00pjZxDSyMBtQpj970OMh1qtRxULeH1d7VfRdk4V0zaTE4lVy8NtqRlXZ2R6nae3r+onipeSa/FbfxPLkBq5tJIQK3MOhNpUiuri93yia4/r+7WNG09qG49legkA7mRlrqnr3K1jftOu7B4JboWVwXWuqBRM8z1CaiJeQcINWpBTQ/UdhJdv8Zh0LBxW2+p+E7bqWmXBtWqVpDduqfWSvSD/WMLqy3C0oipoOVTK7O9WZQaVYbsmhpL0mPoy4pN1DTEjJXizlBP0uBlnVuW1Mrs6YUYatMYNX7XPpigqaXhNcbih/yivpOBGrp4GfNJpHYjYZOX1BEuQ2ptYTWJWoLSiEdt0LdaptTiB52SvpOB2g7WVvirATw5U8nbvNGG+2ZIbYd9egGhps710aiJeQezhNfQBTU9UYsNSLCWoakR7wmgT1JsdtXqsEfPjhq32mfnaWqgNAJ6yEG2Pxt6bVKlhg5rvVAzjVFCmHnofYiXNJSp7QeS9o6BALbsqDXZp+cvhCEk4jUkyebUCvyufdwPajEBCfqGE5Ia+T6UNr690y00aNvMqOU8q+HU8AU1ntea7NFsX6g1TFkwEoowAzVw3AR7IAGnt2+rRfGULzerfM1psj+dl6jJpZGzJmoN12oytdGMqBkDEjxUoKhtyxvlwL6o2ZCIf6TezlcGik6xOFDJ56aQK5byCJlao51PIHM0G8i1mokalmQfcGqMfX6xT9QMgTlxMxPUQH/XcQbidtGOXtarX8Wa5sc8egBjl9GdnJawmk6NLo2cCak9JqgZSiM9UqODC6IHI3YA1skpOQNSuyzAozaJSDOvhDiF6C/ZUONdxvmIWtIk++DgVWE1khqZrvVIjQxIqOACp1aUrSaGfTAo6rXLCjxonb5upZ8OKwPZUHMY+7NHLWGSLVF7HFIbypwa8YsdYnOCmmq1OLNVmbYDpTq+aTbU+Mk+u+JbrYvSiKD25CLhtdMpUQPdThXdHDS6nA2j1ICzGu5/gZFNDbrhPRFToxlBt82EmrDalSu+16h0jaB28SLhtbSo5UBRAhtSQLDQlHtLlBqwjm+HKeT/AoGHA52YpsT5Z0Ktyho+NJIaOteHU3viUdMKWgE1PITsihqAghUvQChSkxsZowasFrQraGwlVwK9HpGFRypgB8qCGr/kv8ZTQ2aNHBz85aKRGhX4d0UNNoQ+rIBQZARUGDFq+BgGDAjjjcGYA0LVOs1QrQBQFtRKwmomavgbYji0gy/6QQ3WPdRHNiAiZMU4asBVTfy/G+AcNM/EAtTylSSKO2TFtdoVLF0zF7Q4tWv9oAbdpAYkqktiqAHj1ujDhALBSLKZEJoyqGgVWOsKQc08a+Tg4EZ/qMF6PrwNQTIlYgUzNbC5nJpBQxeJPXqcWJZ+9Zgf8a/LLrTY0oiarp25fu0iDPwBNTqE7JYa+NUQBQAqrGCmBiJzkJkBs0mGls/d0Z6ol0wqYONaOtTK7Oky7TXTgpqDG9cjr2VKjY7MQefp1muN1EDzwSlElNny5B5C5ravIMdIphhq/IB/W74SeM00a0SjdmYF89poFtTA4NKK7nhQB/aiMyM12mqK2aJkWm7xpuY1c9sPIMdIphhqg9xqy5LVkhe0Dq6j1IDXiGGta2pUQIJkzCZqIGFWC46E2eRxTe8hzW2fFbW2sBrmtQSlkRWd2iSgRgYj3VODqXTQ84BIwe++TNTAQbSEGdwCYcFehqnnWua2z4pak326rA9rZmp+CHkdpzaaDTUAKKCBoTRQA1bTqyxwmkEYqqL/mTW1hgka/4n/WAY95JzeQ8pJdrQM6sRaX70GC0s1DVA4EhmogYpmtV1T1AajXmg2/byHozZVTSJD6zhN9vWqkdrfySR7ZcXktS/fTpsa+PaNW72A3giGHJpagq/uyMojF6PNTu6eWuPQS3ByodWI0sjtPYraqTUjtb3UqcFGF/ciGIdq2GaQWnczGsMprcDk6sBWVOSAq0SpHbYO6bTYt6tGat+9Rs0/WDFS+5KlTw2G7RVYOoxGKZJagq+LQflmA6NhbCESZJaZUNvmVgPU1HTtNqOo3VjTqMmBf5NTI5dm9EoNhOZl+MA7ChMoakm+LgYV3AngP2PaHD7yyYIaT13/uRoNa8iske88avqSwzNrgJpahvySBV7DofVGDU6IA09cJAtQ1Lq2WpgbAPvEPKuBcyeyoFYXVlO8NidTu80kaqA0cv2ykVqHBV5LlRr56UWpWkJRc6ilggY19TY3r+BQZ3NlQE1YbXNVCSFBkr0HqUmlkTWj1+6zjKghKwVdyQE5Qa0Hq4XHhQbaIZt9QI13MqBWZY3VVdhDQmr/YgQ112oGauLiXqcX1PRODVvtxJj2Fl+EGjmNy6iW3uhC22jwXqxq+6dPjY+b/950qeGlEddqPjVl1sipy14HiVObvBdSo4KRnqkV0Vn1oB1waiB836lO0QI9qX9y7WaZyivgirmCug1NLf4Dx2ROx8fYzc1VNPD3qHGrFUJqYEHNim81j9qs6jUefbVED5kBNbSj2wZboNSg1YxPpAFfv8iPDIqtkWrNm5LfrtVLxNxntDayM5hAxJIs12oeNbw0stBipW32mh5CnuRW84ORiFpU8hdWy7OsqCHL1JTHJyg10HkZ4wml4pJDmj25Uq9Dllhjc3PV4DVutSJK7dTKusFro+8wVuW39uumdO0Q1CraD1Rq9xg1+BAmZvIHyC+CZzPdVMOiWyTtmj//8V+R1NzAX1SN6i41tYdcvxwEI5jX3mXMKWZHTVvzpJYGMWpdWO2YklUH3S8VvmpqVCJGaVMrs6ebEjV91sh7YpBXqHnPadZoahyasNqxLKmpyzbVkAyhBgsWsfOs4NgZ9L8VdP29pnJR6g5SppZ3rYZ6zUuyN9wCbV3uIad9r60bqQmrRdQIaIehpnRWxj/71IA9Y60mXrstKSy7OHpkr0tsHYU+KVMbdK2mUpPStbvuTSxRCwN/YbWA2g2N2jvuhWdKDfxVX7ekU4NWS7AKEzcbb3xqoW8gf1JW+O90qfFO+qstE7U73l2jUzs5vm6iNvTIrS5lS00OSHQGOjWQSSWwmvr4VD41nub7zIKflBG1Qfb1lkdtGS+N3PUmv/rU5LdWXDZRG3rotbJLzVAa6Ybatv7nKKVCHvnK1NypJDDqTLTgGXbCYOR0aiNYNbQzUos2006WSuTPL+objZpchrzjN5ZObfqqkdq+Fyr7XiODkThqdWkqKLKKxZkK/ohUh/KFaF93TMrJE0uTTdR3qvI+6rQDp5IrlUN0rcFCtVYBOeN23VM1uLzKSKFLIa/0CqwGSiNyyf+uX0VXqY2PXw6orajRiID2hd+h+V7rmdoPQE749LpPJwytRpVG7gSjiaAG5h+MXQXUbijU9v1VeT8Cav2W02HfvrGFBCMhtTeD0MylFr48l3eQ6xwaTe1B8GzDUktdOddqW3SS/WH4YMn3Wphku1Zbj8qQCrX9gLallrqYazUq8OfUvgsrQQq18as4Na8MOfwgrAlaammLh83fqNTArJHIakEPGSyDmtkwURvqhPNjAmoUNEutSzmMff8G5TXXanvRA46ImhuMXA2oranUeOA/fD8q8QlqpnTNUutSVcZu3sS95qVr70v1VUDt+Rc3rlLUhNekuoOllq54e35/8+bWFl0a2ZNmhEKvbdDUhocnJKv51OhhzVLrTq7Vbm7pSXYQQspWE9Siz8CexakFIWRDetuXpZaqhNVuGam1pMYPqYkQcmzDRG3inlzis9RSVYk1bunDmkTtfVBflahNX5o3UJu41pAfKltqaarC2H9uhT0kRg0+0Ze9Nu96bV0uHkvU7oHSuKWWpkbY01tGr30MW1OidslI7Rp8aGKppSjXagi1KMluwCdWIbWx40tGap/Dp1CWWooqC6uZqL2nPAIU1LzAf0FAU0sjIbVrysIunxoJzVJLrjZj/xXQiB5ycfFZQ1lVF1KbWZqXvLamUJt9pKxbtdTS0yD7+hZKLUiyP1LfCBdSW1iSvaZSe6zOE7DUUlONW23XRO2ZtoDVp3b8XGA1nNojsIDsmE/NMKxZaonFrbbreY0oaH2krc8PqL3iTpGkqD3UJlJZamnJt5rvNWT+wTN9FptLbWbm7JLRa/vaPDBLLS112Le7u3IIqVL7QH+5l++1eYLaDZfaQ/3lKZZaSsox9r/dqIfUQ0jEar7Xzs4tgRBS8dq+/uJtSy0lMfb9LvSaQu0DZPY1p8attrQkU1N7yAfIe8QstXS07VrNQO0z7AstLrVLc0tLaroWUZvtIC9zsNRSkRNajaK2h33d2KU2p1LzvHbdo3Yfe8e9pZaK6pLVUGqfoB8YENQWFkmviWikga138KjR0Cy1JCp6ViOoiXRtD31pjaA2F3rtqk5t+Am6is9SS0NVxnaN1D7Bl1ByaguLWg+5FvSQ3GstdGmRpZaCPKt5yLTCiDuqdeR5B5E4NX/J70aQrl0GXruHLy3iJ3z7Zya9bqnFKsn3udHVysj3NFWhtPFvs0JZambpL3tI2PhJqKHvF7LUDq/iQLzwVVgJ9sRP2fMZrax+wPo/diZ9BlAuOMkAAAAASUVORK5CYII=;" vertex="1" parent="1">
          <mxGeometry x="201" y="21.58" width="439" height="115.53" as="geometry" />
        </mxCell>
        <mxCell id="OHi0hXQzuh8hUmMyIJb7-12" value="" style="edgeStyle=orthogonalEdgeStyle;rounded=0;orthogonalLoop=1;jettySize=auto;html=1;" edge="1" parent="1" source="OHi0hXQzuh8hUmMyIJb7-7" target="OHi0hXQzuh8hUmMyIJb7-11">
          <mxGeometry relative="1" as="geometry" />
        </mxCell>
        <mxCell id="OHi0hXQzuh8hUmMyIJb7-7" value="Data Loader" style="rounded=0;whiteSpace=wrap;html=1;" vertex="1" parent="1">
          <mxGeometry x="243" y="150" width="120" height="50" as="geometry" />
        </mxCell>
        <mxCell id="OHi0hXQzuh8hUmMyIJb7-8" value="Pipeline 1" style="rounded=0;whiteSpace=wrap;html=1;" vertex="1" parent="1">
          <mxGeometry x="243" y="110" width="110" height="20" as="geometry" />
        </mxCell>
        <mxCell id="OHi0hXQzuh8hUmMyIJb7-14" value="" style="edgeStyle=orthogonalEdgeStyle;rounded=0;orthogonalLoop=1;jettySize=auto;html=1;" edge="1" parent="1" source="OHi0hXQzuh8hUmMyIJb7-11" target="OHi0hXQzuh8hUmMyIJb7-13">
          <mxGeometry relative="1" as="geometry" />
        </mxCell>
        <mxCell id="OHi0hXQzuh8hUmMyIJb7-11" value="Transformer" style="whiteSpace=wrap;html=1;rounded=0;" vertex="1" parent="1">
          <mxGeometry x="243" y="230" width="120" height="30" as="geometry" />
        </mxCell>
        <mxCell id="OHi0hXQzuh8hUmMyIJb7-13" value="Data Exporter" style="whiteSpace=wrap;html=1;rounded=0;" vertex="1" parent="1">
          <mxGeometry x="243" y="290" width="120" height="30" as="geometry" />
        </mxCell>
        <mxCell id="OHi0hXQzuh8hUmMyIJb7-25" style="edgeStyle=orthogonalEdgeStyle;rounded=0;orthogonalLoop=1;jettySize=auto;html=1;exitX=1;exitY=0.5;exitDx=0;exitDy=0;" edge="1" parent="1" source="OHi0hXQzuh8hUmMyIJb7-15">
          <mxGeometry relative="1" as="geometry">
            <mxPoint x="120" y="180" as="targetPoint" />
          </mxGeometry>
        </mxCell>
        <mxCell id="OHi0hXQzuh8hUmMyIJb7-15" value="Kaggle Survey" style="shape=image;verticalLabelPosition=bottom;labelBackgroundColor=default;verticalAlign=top;aspect=fixed;imageAspect=0;image=data:image/jpeg,/9j/4AAQSkZJRgABAQEAkACQAAD/2wBDAAMCAgMCAgMDAwMEAwMEBQgFBQQEBQoHBwYIDAoMDAsKCwsNDhIQDQ4RDgsLEBYQERMUFRUVDA8XGBYUGBIUFRT/2wBDAQMEBAUEBQkFBQkUDQsNFBQUFBQUFBQUFBQUFBQUFBQUFBQUFBQUFBQUFBQUFBQUFBQUFBQUFBQUFBQUFBQUFBT/wAARCAD/AP8DASIAAhEBAxEB/8QAHwAAAQUBAQEBAQEAAAAAAAAAAAECAwQFBgcICQoL/8QAtRAAAgEDAwIEAwUFBAQAAAF9AQIDAAQRBRIhMUEGE1FhByJxFDKBkaEII0KxwRVS0fAkM2JyggkKFhcYGRolJicoKSo0NTY3ODk6Q0RFRkdISUpTVFVWV1hZWmNkZWZnaGlqc3R1dnd4eXqDhIWGh4iJipKTlJWWl5iZmqKjpKWmp6ipqrKztLW2t7i5usLDxMXGx8jJytLT1NXW19jZ2uHi4+Tl5ufo6erx8vP09fb3+Pn6/8QAHwEAAwEBAQEBAQEBAQAAAAAAAAECAwQFBgcICQoL/8QAtREAAgECBAQDBAcFBAQAAQJ3AAECAxEEBSExBhJBUQdhcRMiMoEIFEKRobHBCSMzUvAVYnLRChYkNOEl8RcYGRomJygpKjU2Nzg5OkNERUZHSElKU1RVVldYWVpjZGVmZ2hpanN0dXZ3eHl6goOEhYaHiImKkpOUlZaXmJmaoqOkpaanqKmqsrO0tba3uLm6wsPExcbHyMnK0tPU1dbX2Nna4uPk5ebn6Onq8vP09fb3+Pn6/9oADAMBAAIRAxEAPwD9UiQoyTgVC15Gvq30FVriYyMQPujpUNAF77cno35Ufbk9G/KqNFAF77cno35Ufbk9G/KqNFAF77cno35Vwnxe+P3gT4E+Hf7b8ca/BodixKxiQF5ZmHZI1yzH6DjPNdZI4jRmPRRk1/Pj+2R8ZNe/aP8A2l/EMrTST2kOpPo+j2e47I4UlMceB0BY/MfdjQB+l+pf8Fn/AIGaffSwRaF441CNDgXFtp1oI39xvulbH1Aqt/w+r+CH/QrfED/wXWP/AMmV8v8AhH/gkvqGpaLYza341isdSnVWlt7eAusROPlyepFdZ/w5xh/6KG3/AICUAe6f8Pq/gh/0K3xA/wDBdY//ACZR/wAPq/gh/wBCt8QP/BdY/wDyZXhf/DnGH/oobf8AgJR/w5xh/wCiht/4CUAe6f8AD6v4If8AQrfED/wXWP8A8mUf8Pq/gh/0K3xA/wDBdY//ACZXhf8Aw5xh/wCiht/4CUf8OcYf+iht/wCAlAHun/D6v4If9Ct8QP8AwXWP/wAmUf8AD6v4If8AQrfED/wXWP8A8mV4X/w5xh/6KG3/AICUf8OcYf8Aoobf+AlAHun/AA+r+CH/AEK3xA/8F1j/APJlH/D6v4If9Ct8QP8AwXWP/wAmV4X/AMOcYf8Aoobf+AlH/DnGH/oobf8AgJQB7p/w+r+CH/QrfED/AMF1j/8AJlH/AA+r+CH/AEK3xA/8F1j/APJleF/8OcYf+iht/wCAlH/DnGH/AKKG3/gJQB7p/wAPq/gh/wBCt8QP/BdY/wDyZR/w+r+CH/QrfED/AMF1j/8AJleF/wDDnGH/AKKG3/gJR/w5xh/6KG3/AICUAe9WX/BaL4G3V1HFJ4e8d2iMcGabTrPYvudt2T+QNfTfwT/aw+F37Qlu7eB/FEGp3Ua7pdPkUw3UY7kxPgkD+8uR71+TX7Sn/BNdPgD8IdX8bJ4xOqmwaNTam327tzY618b+B/HOu/DjxPYeIfDmpT6Vq9jKssFzbuVZWBz+I9qAP6g/tyejflR9uT0b8q+Rv2Hf25NF/ak8Lpp2pvDpfj2xjAvLDcAtwAP9dEO4Pcdq+q6AL325PRvyo+3J6N+VUaKAL325PRvypVvI29V+oqhRQBqghhkHIpaz7eYxsAfunrWhQBk0UUUAFFFFABRRRQBFd/8AHrN/uN/Kv5xfDf8AycxZ/wDYzf8Atwa/o6u/+PWb/cb+Vfzi+G/+TmLP/sZv/bg0AfvDaf8AHxD/ALy/zrrK5O0/4+If95f511lWWFFFFABRRRQAUUUUAFFFFABRRRQAUUUUAfMn/BSD/k0Xxf8A9dLf/wBGV+Z37DfwO8PftA+MvF3hbxAjoj6G8lreRE+ZaziVNsi9jjuDwQTX6Y/8FIP+TRfF/wD10t//AEZXwl/wSj/5Ll4i/wCwG/8A6OjqepPU8H8ffD/4g/sefF6DNxPper6fN5+n6taErHcIDwynuCOqn6V+xP7Dv7cWiftTeF103Umh0rx/p8Q+2WG7C3SgYM0I9PVe306R/Hv4CeG/2gvBM+g69AqzAFrO+VR5ttJjhgfT1Ffj34/8BeP/ANjv4xW48+40nV9Pm+06bqluSI7mMHhlPcHoV/A0Af0Y0V8p/sN/txaL+1J4XXTNSeHTPHthEPtmn7gBcKBzNF6j1HavqykIKKKKACtSM5jQ+wrLrTh/1Sf7ooAzKKKKACiiigAooooAiu/+PWb/AHG/lX84vhv/AJOYs/8AsZv/AG4Nf0dXf/HrN/uN/Kv5xfDf/JzFn/2M3/twaAP3htP+PiH/AHl/nXWVydp/x8Q/7y/zrrKssKKKKACiiigAooooAKKKKACiiigAooooA+ZP+CkH/Jovi/8A66W//oyvhL/glH/yXLxF/wBgN/8A0dHX3b/wUg/5NF8X/wDXS3/9GV8Jf8Eo/wDkuXiL/sBv/wCjo6nqT1P1YrzX4+fATwz+0J4GuPD3iG2XzFzJZX6KPOtJscOh9OxHQivSqKoo/DDx94A8f/se/F63bz7jStW0+cT6dq1qSqTqDwyn37iv2G/Yd/bk0T9qTwsmm6o8GleP7CMC9sMhVugP+W0Q9D3Xsfbonx6+Afhr9oLwTcaB4ggCygFrS/jUebaydmU+nqO9fjz4+8A/ED9jr4xQK00+lavp832jTdWtciK6jB4dT3B6Mp6cg1JJ/RlRXyp+w3+3Don7UnhVNM1KSHS/H9hH/penFsC5UDmaHPUeq9R9K+q6QgrTh/1Sf7orMrTh/wBUn+6KAMyiiigAooooAKKKKAIrv/j1m/3G/lX84vhv/k5iz/7Gb/24Nf0dXf8Ax6zf7jfyr+cXw3/ycxZ/9jN/7cGgD94bT/j4h/3l/nXWVydp/wAfEP8AvL/OusqywooooAKKKKACiiigAooooAKKKKACiiigD58/b48L33i79lHxxaadC1xcwwx3XloMkqjgt+Qyfwr8tP2C/jp4f+BPxofUPE7Pb6Tqdm1hJdqMi3JZWV2H93KgH0zmv3JurWG+tZra4iSe3mRo5IpBlXUjBUjuCDivzW/aO/4JPXeqeIrzXfhTq1nb2t1IZX0LVWZFgJOT5Uqg5X0Ujj1pCPpf/hsr4J/9FH0T/wACBR/w2V8E/wDoo+if+BAr89/+HVvxz/599BP/AHEG/wDjdJ/w6t+Of/PtoP8A4MG/+N0tRan6E/8ADZXwT/6KPon/AIECvNfj58UP2cP2gvA9x4f1/wAf6GJVBeyvlmHm2suOGU+nqO9fIH/Dq345/wDPtoP/AIMG/wDjdH/Dq345/wDPtoP/AIMG/wDjdGoanztHrGpfBH4ni/8ACPiWK4vNJuhJZaxpcuUkwcqwI7HuK/b39hf9suw/au8ByC9SKx8aaSqpqlnHwr54WZB/dbB47EEV+Xuvf8Ex/jX4c0PUNVu7bRPstjA9xL5d+xbailjgbOTgVW/4Jl+PbzwX+114Stbd5PI1wyaZPGrEKVZSwJHfGzj60hH701pw/wCqT/dFZlacP+qT/dFAGZRRRQAUUUUAFFFFAEV3/wAes3+438q/nF8N/wDJzFn/ANjN/wC3Br+jq7/49Zv9xv5V/OL4b/5OYs/+xm/9uDQB+8Np/wAfEP8AvL/Ousrk7T/j4h/3l/nXWVZYUV4r+1d+05ov7Lvw5/t2/hGoaveObfTNN3YM8gGSzdwijGSPUDvmvym8af8ABRr46+MNYmurbxbJoNszEx2OkwpEkY9Mgbm/EmkI/cOivwc/4bn+Pn/RRdb/AO+//rUf8Nz/AB8/6KLrf/ff/wBai4XP3jor8G2/bp+PSjLfEfWgPeT/AOtSL+3V8en+78R9ab6SD/Ci4XP3lor8HP8Ahuf4+f8ARRdb/wC+/wD61H/Dc/x8/wCii63/AN9//WouFz946K/Bz/huf4+f9FF1v/vv/wCtR/w3P8fP+ii63/33/wDWouFz946K/Bz/AIbn+Pn/AEUXW/8Avv8A+tTW/bs+PKnB+JGtA+8g/wAKLhc/eWivwbX9uj49sMj4ja0R7Sf/AFqX/huf4+f9FF1v/vv/AOtRcLn7x0V+Dn/Dc/x8/wCii63/AN9//WruvhV/wU2+MngPXYJde1ZPGWkb1FxY6nGu8pkbtkigMrYzjkjPUGi4XP2porifg38XNC+OHw80rxh4dlZ9Pvo8mN/vwuOGjb3B4rtqYzk/i1/yS3xf/wBgm6/9FNX4l/sB/wDJ43wr/wCwt/7Sev20+LX/ACS3xf8A9gm6/wDRTV+Jf7Af/J43wr/7C3/tJ6lks/oSrTh/1Sf7orMrTh/1Sf7opCMyiiigAooooAKKKKAIrv8A49Zv9xv5V/OL4b/5OYs/+xm/9uDX9HV3/wAes3+438q/nF8N/wDJzFn/ANjN/wC3BoA/eG0/4+If95f511lcnaf8fEP+8v8AOusqyz8iv+CvXiK8vPj54a0WR82VjoCXMKejyzyhz+IiT8q9P/Yd+DXhFPgjpuu3WiWeo6rqbvJNcXkKykAHAVdwOAK8c/4K3/8AJz2lf9iza/8ApRc19LfsT3EUf7OPhZXljVtr8MwB6185nkpRw65Xa7PFzSTjSVn1PVP+Fa+Ev+hY0f8A8AYv/iaP+Fa+Ev8AoWNH/wDAGL/4mt/7VB/z3i/77FH2qD/nvF/32K+G5592fLc0u58if8FB/B+g6H8D4LjTdF0+wuDqMS+bbWyRtj0yBXmX/BNPw3pPiHUvHY1TTLPURFDaGP7VAsmzJlzjcDj/AOtXsP8AwUYnik+BEASRHP8AaURwrA15Z/wS/mjh1Tx/vdUzDZ43ED+KWvp6Upf2TN31v+qPbpt/2fJ+f6o+2/8AhWvhL/oWNH/8AYv/AImj/hWvhL/oWNH/APAGL/4mt/7VB/z3i/77FH2qD/nvF/32K+Y5592eJzS7mB/wrXwl/wBCxo//AIAxf/E0f8K18Jf9Cxo//gDF/wDE1v8A2qD/AJ7xf99ij7VB/wA94v8AvsUc8+7Dml3MD/hWvhL/AKFjR/8AwBi/+Jr8x/289JsdF/aC1C20+yt7C2FnbsIbaMRoCU5OBX6r/aoP+e8X/fYr8sf+CgciyftF6iyMrr9ituVOR9yvfyWUnind9H+h62WSbr6vofcX7MvgPw1qHwC8D3N14e0u5uJNPDPLLZxszHe3JJGTXpv/AArXwl/0LGj/APgDF/8AE1xf7LV1Cv7PPgQGaMEacuQXAP32r1P7VB/z3i/77FePiJz9tPXq/wAzz60pe0lr1Zgf8K18Jf8AQsaP/wCAMX/xNfFf/BRz4S+GfDPh/wANeKNH0y30vUJr02M62kYjjlQxs4JUcZBTqP7xr7z+1Qf894v++xXx1/wU0nik+FXhVUkRz/bQOFYH/lhLXZllSf1uCuzowU5fWI6nef8ABHnWLy6+HHjjTpZ2eztdRjeGJuiFoxux9TzX6E1+dP8AwRx/5E34hf8AX/D/AOixX6LV+kI+0Ryfxa/5Jb4v/wCwTdf+imr8S/2A/wDk8b4V/wDYW/8AaT1+2nxa/wCSW+L/APsE3X/opq/Ev9gP/k8b4V/9hb/2k9JiZ/QlWnD/AKpP90VmVpw/6pP90UhGZRRRQAUUUUAFFFFAEV3/AMes3+438q/nF8N/8nMWf/Yzf+3Br+jq7/49Zv8Acb+Vfzi+G/8Ak5iz/wCxm/8Abg0AfvDaf8fEP+8v866yuTtP+PiH/eX+ddZVln47f8Fb/wDk57Sv+xZtf/Si5r5X0OLx82mxHRk8SHT/APln9hFx5X4beK+qP+Ct/wDyc9pX/Ys2v/pRc17p+x7Gjfs++GSUUna/b3rzsZX+rwUrX1PJzHF/U6any3u7H55/Z/il/wA8/F//AHzdUfZ/il/zz8X/APfN1X65+Sn9xfyo8lP7i/lXkf2l/wBO0fPf26/+fS+//gH47eJIvGyaeD4gTX1stwx/aQn8vd2+/wAZqt4Tt/FVw1z/AMIxFrEjAL5/9krKSBzt3eX+OM+9ffn7f0ar8EoCFAP9oxdBXF/8EvVVtT+IAZQ37mz6j/alrsljeXCSxHLt0+aPao472uEeI5dnsfLX9n/Fj/n28Zf9+7v/AAo/s/4sf8+3jL/v3d/4V+z/AJMf/PNfyFHkx/8APNfyFeH/AG5/06X9fI4/7U/6do/GD+z/AIsf8+3jL/v3d/4Uf2f8WP8An28Zf9+7v/Cv2f8AJj/55r+Qo8mP/nmv5Cj+3P8Ap0v6+Qf2p/07R+MH9n/Fj/n28Zf9+7v/AArkfEkOtw6oy+IE1CPUdo3LqQcTbe2d/OK/c3yY/wDnmv5Cvyw/4KCgD9ozUQBgfYrbp/uV6eX5l9brez5EtLnbhMb9YqcnLbQ8j0ix+JMmm27aXb+Km08r+5NmlyYtv+zt4x9Kuf2f8WP+fbxl/wB+7v8Awr9TP2Wokb9nnwGSik/2cvb/AG2r1PyY/wDnmv5CuGrnXs6koeyWjf8AWxzTzLlm48i0Pxg/s/4sf8+3jL/v3d/4Vh+K7XxpBZwnxNDr0dqZMRnVlmCb8H7vmcZxnp71+3fkx/8APNfyFfHX/BTaNV+FPhXaoX/idDoP+mEtbYXNvrFeNL2aVzTD5h7WrGHJa51v/BHH/kTfiF/1/wAP/osV+i1fnT/wRx/5E34hf9f8P/osV+i1fWI+gRyfxa/5Jb4v/wCwTdf+imr8S/2A/wDk8b4V/wDYW/8AaT1+2nxa/wCSW+L/APsE3X/opq/Ev9gP/k8b4V/9hb/2k9JiZ/QlWnD/AKpP90VmVpw/6pP90UhGZRRRQAUUUUAFFFFAEV3/AMes3+438q/nF8N/8nMWf/Yzf+3Br+jq7/49Zv8Acb+Vfzi+G/8Ak5iz/wCxm/8Abg0AfvDaf8fEP+8v866yuTtP+PiH/eX+ddZVln47f8Fb/wDk57Sv+xZtf/Si5r1b9k/4heGNF+BXh2zv9f0+zuo1bfDNcKrLz3Bryn/grf8A8nPaV/2LNr/6UXNfOvhH9mv4j+OtBt9Z0Pw1LfabcZMU6zxKGx7MwNefjKUK0Epy5Vc8jMcPSxFNRqz5Vc/T7/ha3gz/AKGnSf8AwKX/ABo/4Wt4M/6GnSf/AAKX/GvzZ/4Y8+Lv/Qnzf+BUH/xdH/DHnxd/6E+b/wACoP8A4uvH+o4f/n6vwPnv7Lwf/QQvw/zPp39ufxx4e8RfByG10vWrHULgX8bGK3nV2x64Fcf/AME2/F2ieE9S8dNrOq2mlrPFaiI3UoTfgy5xnrjI/Ovm/wAefAHx78M9HXVfEmgSaZYNIIhM00bjcegwrE1nfDv4Q+LfitJep4W0h9VayCGcJKibA2dv3mGc7T09K7XhaUsJKjz+6+p7VHDUKeDdJVLxvvofsL/wuDwN/wBDbo//AIFp/jR/wuDwN/0Nuj/+Baf41+V3/DHnxd/6E+b/AMCoP/i6P+GPPi7/ANCfN/4FQf8AxdeN/ZGG/wCf/wCX+Zw/VMJ/z/X3r/M/VH/hcHgb/obdH/8AAtP8aP8AhcHgb/obdH/8C0/xr8rv+GPPi7/0J83/AIFQf/F0f8MefF3/AKE+b/wKg/8Ai6P7Iw3/AD//AC/zD6phP+f6+9f5n6o/8Lg8Df8AQ26P/wCBaf41+Z37dmvad4i+P1/e6XfQahaNZ26ia3cOhITkZFc//wAMefF3/oT5v/AqD/4uvOfG3gTXPhzrr6N4hsG07UkRXaBnVyFIyDlSRXo4DAUcNV56dTmdvI7sHQoU6nNTqKTttofqX+zT8UPCGk/AXwTZ3viXTLS6h08LJDNcqrIdzcEZ4r0z/hcHgb/obdH/APAtP8a/Kbwx+yb8VvGWgWOt6P4TmvNMvY/NguFuYVDrnGcFwe3etT/hif40f9CVP/4F2/8A8crz6uW4SVSUpV0m2+3+Zz1MHh5TbdVfgfqL/wALg8Df9Dbo/wD4Fp/jXyX/AMFGfHXh3xV8MvDNvo+tWOpzx6uJHjtZlcqvkyDJA7ZIr5u/4Yn+NH/QlT/+Bdv/APHK5D4kfADx78I9LtdQ8WaBJpFnczfZ4pHmifc+0tjCsT0U/lW2Fy/C0q8ZwrJtdNP8zXD4ShTqxlGrdr0P0I/4I4/8ib8Qv+v+H/0WK/Ravzp/4I4/8ib8Qv8Ar/h/9Fiv0Wr6xH0COT+LX/JLfF//AGCbr/0U1fiX+wH/AMnjfCv/ALC3/tJ6/bT4tf8AJLfF/wD2Cbr/ANFNX4l/sB/8njfCv/sLf+0npMTP6Eq04f8AVJ/uisytOH/VJ/uikIzKKKbNNHbxPLK6xxoNzO5wFA6kntQA6ivn3xl+358AvAuszaVqnxG09r6E4kSyhmukH/bSNGQ/gTWD/wAPMP2c/wDooKf+C66/+NUAfUFFfL//AA8w/Zz/AOigp/4Lrr/41R/w8w/Zz/6KCn/guuv/AI1QB9PSx+ZE6dNwIr8hG/4Jo/ETwz+08NWuJ7E+DU1h9Sh1NZgZHi8zeqmPqG5AP0zX27/w8w/Zz/6KCn/guuv/AI1XMeMv+CjP7P2pNbG18drLtB3Y0+5GPzjpjPabX/j5h/3x/Ousr5It/wDgoN8B1uImbxsAoYEn7Bcev/XOuh/4eNfs/f8AQ9r/AOC+5/8AjdMZ4f8A8FHv2M/GHxo8aaT488I/Z7z7Ppyade2txMIzGqSOyOpPUEykH6Cug+Bvw/ufhf8AC/Q/Dl5Ms93aRfvmj+7vPJA9q7jxf/wUL+AuqeG7+1t/HCyTyIAi/YLkZOR6x14v/wANlfCL/oal/wDASf8A+IrwcyVWo4whG632Pk87jXquNOnFuO+i6nteaM14p/w2V8Iv+hqX/wABJ/8A4ij/AIbK+EX/AENS/wDgJP8A/EV4f1et/I/uPl/qeI/59v7mX/2ovhLqXxk+Fs+i6RLGmpRTpcwrM21ZNvVc9s1xP7Gv7P8A4h+Cth4ivPEnkw3uqNCkdrC+/Yke8lifcuOPaun/AOGyvhF/0NS/+Ak//wARR/w2V8Iv+hqX/wABJ/8A4iuhfWVSdFQdn5HbFY2OHeGVN8r8me15ozXin/DZXwi/6Gpf/ASf/wCIo/4bK+EX/Q1L/wCAk/8A8RXP9XrfyP7ji+p4j/n2/uZ7XmjNeKf8NlfCL/oal/8AASf/AOIrvfAnxc8HfEyJn8M+ILTVWXloUJSUe+xgGx74xUSo1IK8otL0Inhq1Nc04NL0Z12a/M/9uz/kv1//ANedv/6AK/TCvzP/AG7P+S/X/wD152//AKAK9HLP479D2Mj/AN6fo/0P0N/ZZ/5N48B/9g5f/Q2r1PNfJXwB/a6+FPgz4M+EtD1jxQLTU7GyEVxD9kmbY25jjIXB69q9A/4bg+C3/Q4j/wAAZ/8A4ivnsRhcRKtNqm930fc3q4es6kmoPd9D3XNfHP8AwU4/5JT4V/7DQ/8AREteo/8ADcHwW/6HEf8AgDP/APEV80ft2ftCeAfjB8PvD+m+EtcGq3lrqn2iWP7PJHtj8qRc5ZQOrD866svw1eGKhKUGlfszfB0Ksa8XKLS9D3H/AII4/wDIm/EL/r/h/wDRYr9Fq/On/gjj/wAib8Qv+v8Ah/8ARYr9Fq/Q0fYo5P4tf8kt8X/9gm6/9FNX4l/sB/8AJ43wr/7C3/tJ6/bT4tf8kt8X/wDYJuv/AEU1fiX+wH/yeN8K/wDsLf8AtJ6TEz+hKtOH/VJ/uisytOH/AFSf7opCMyvzP/4K5/tPaz4Sj0v4V+HL97A6jb/a9XlgfbIYicJFkcgNyT9K/TCvw/8A+CuX/J393/2BLH+T0AeLfCL9k/xr8ZPD513ThbWWlu7JFcXkmPOIJDbR1wCCM16Xb/8ABN34h3EKyLqujgN0zK3+FfVX7KoC/s++C8DH+hD/ANCNe+6X/wAeEP0/rXyGMzTEUZNQtv2PjpZriPbzgrWTZ+bf/Dtf4if9BbRv+/rf4Uf8O1/iJ/0FtG/7+t/hX6XUV539tYvuvuL/ALSxHdfcfmj/AMO1/iJ/0FtG/wC/rf4Uf8O1/iJ/0FtG/wC/rf4V+l1FH9tYvuvuD+0sR3X3H5o/8O1/iJ/0FtG/7+t/hR/w7X+In/QW0b/v63+FfpdRR/bWL7r7g/tLEd19x+aP/Dtf4if9BbRv+/rf4Uf8O1/iJ/0FtG/7+t/hX6XUUf21i+6+4P7SxHdfcfmj/wAO1/iJ/wBBbRv+/rf4Uf8ADtf4if8AQW0b/v63+FfpdRR/bWL7r7g/tLEd19x+aP8Aw7X+In/QW0b/AL+t/hR/w7X+In/QW0b/AL+t/hX6XUUf21i+6+4P7SxHdfcfmj/w7X+In/QW0b/v63+FH/Dtf4if9BbRv+/rf4V+l1FH9tYvuvuD+0sR3X3H5o/8O1/iJ/0FtG/7+t/hXhnizwl4z/Zs+JC2l4ZdK1qyZZoZ7d/klTqGVh1U1+0Nfm1/wUw/5K74d/7A4/8ARr16mXZlXxVf2VWzTT6Hdg8ZUxFT2dSzTPsH4N/EBfih8NdC8SBdkt5B++UDAEikq36jP418B/t2f8l+v/8Arzt//QBX1z+xN/yb3on/AF3n/wDQq+Rv27P+S/X/AP152/8A6AK6cFFQxc4rZX/M8vLYKnmNSEdlf8zS+H/7Bfjn4ieDNJ8S2GpaXFZalD58STSEOFyRzx7V0H/Dtf4if9BbRv8Av63+FfbX7LP/ACbx4D/7By/+htXqlePWzjFQqyimrJvodVTMa8ZyimtH2PzR/wCHa/xE/wCgto3/AH9b/CvM/jt+yj4p+AOgafq+u3ljc297dfZYxauSQ2xm5z2wpr9eq+Of+CnH/JKfCv8A2Gh/6IlrowWaYmviIU5tWfka4bH1qtaMJPRnV/8ABHH/AJE34hf9f8P/AKLFfotX50/8Ecf+RN+IX/X/AA/+ixX6LV9qj6dHJ/Fr/klvi/8A7BN1/wCimr8S/wBgP/k8b4V/9hb/ANpPX7afFr/klvi//sE3X/opq/Ev9gP/AJPG+Ff/AGFv/aT0mJn9CVacP+qT/dFZlacP+qT/AHRSEZlfh/8A8Fcv+Tv7v/sCWP8AJ6/cCvw//wCCuX/J393/ANgSx/k9AH0b+yv/AMm/eC/+vIfzNe+aX/x4Q/T+teB/sr/8m/eC/wDryH8zXvml/wDHhD9P61+dZh8UvVn5s/8Aeanq/wAy1Xmfxh/aK8DfA+1B8Sasq6g67otMtR5tzIOcHYPug4PzNge9Y37U3x6h+Avw4l1GDZLrt8Tb6dC/TfjlyPRRzX5meAvh743/AGnPiJcpaPJqeqXL+ffajdMdkKk43O3YdgPbArTAZfHERdeu+WC/E9rC4NVYurVdoo+rdc/4KfWq3BGj+CJpYM8Ne3YjYj6KG/nXSeBf+ClXhHWb2G28S6FfaArnBu4SLiJPdgPm/JTTvCv/AATU8GWOnoNe1zUtSviPna3IijB/2RjP51xHxW/4Jqz2tubvwDrbXkgPNhqhCkj/AGXA/nXellFR+zV156nX/wAJ8nybeep90eGfFGk+M9EttY0PUINU0y5XdFc27hlb29j7Hmr17e2+m2c11dTR29tCheSaVgqoo6kk9BXiP7H/AME9c+Bvwxm0nxBcxy6jd3RuWt4H3xwDGAAe5Pf8K85/4KP+PtQ8NfC/SNCsZXgj1q6Zbl42ILRoAdv0J6ivDjho1cV7ClK6b38jzI0VUr+yg7q+5B8SP+CkHhDw1qdxYeGdHuvEphYobwuIbdyCQdpPzEe+MHtXPeF/+CnWlT3SJ4g8HXVnAxwZbC4WYr74bbXi/wCyD+yXZftAWuq61reqTWWj6fMtuILTHmzSEbjknooGPrn2r3H4g/8ABNPQbnTZJfB+vXdnfquUgv8AEkTn0yOR+de/Uo5XQn7Cpe666nqyp4ClL2U9++p9TfC/4w+EfjFof9qeFNYh1KFTtlhwUmhb0eNgGXpwSMHqMiqXx0+MNj8Dfh1feKr60lvxCyRQ2sJAMkjsFUEnoOck+gPU8V8o/sZ/su/EX4W/Fy41zxDbDSdLt7eS3cLLuFyxIxtA6rxnNfUP7SXw5HxU+CvinQVi828a1a4tFBwfPi/eIB9SoH414tWjh6OKjCMuaF0ebUp0addRUrx0OU/Zh/aq079oq31O2/sxtG1rTwsktr5nmI8bHAZWwM8g5GK94r8jf2NfiIfhr8etGkuJfKsr9jp9zlsLh+AT9D/Ov1yq80wscLXtBe69UVjsOsPVtHZnmH7Qnx30v9n/AMD/ANvX9s1/cTSi3tLKNwpmkPPU9AByaxv2Zf2ltO/aM0HUriHTpNI1PTZFS5tGfeu1gSjq3cHBHIHINfIv/BST4iHXPiNpPhSCUm20e382aMdPOfnP1A4r6H/4J9/Dk+C/gbHq9whW98QXL3p3DBES/u4x9DtLf8DrephKVHL1Wmvfk9P69DWeHp08Iqkvie39eh9N1+bX/BTD/krvh3/sDj/0a9fpLX5tf8FMP+Su+Hf+wOP/AEa9Tk3+9r0ZOW/7wvme/fsTf8m96J/13n/9Cr5G/bs/5L9f/wDXnb/+gCvrn9ib/k3vRP8ArvP/AOhV8jft2f8AJfr/AP687f8A9AFfQYX/AH2fz/MWA/5GdX5/me1fBz/goB4N+HPwv8N+Gb7w9rtzd6ZaiCSa3WExsdxOVzIDjnuK7L/h5t4D/wChY8R/98W//wAdrxv4Z/sI2nxB+H+heI28UTWjalbCcwiEEIckYz+FdP8A8O4bP/ocJv8AwHFc9TD5a5ycr3v5m9SplvPLmk738zvf+Hm3gP8A6FjxH/3xb/8Ax2vCP2uv2uPDn7QngzRtG0XSNU06exv/ALW8l+sYVl8t0wNrtzlhXdf8O4bP/ocJv/AcV5F+0l+yrb/AXwrperxa5Jqj3l79lMbxBQo2M2f/AB39a1w2Hy+NaMqV+bpubYapl7qxVJ+903PsP/gjj/yJvxC/6/4f/RYr9Fq/On/gjj/yJvxC/wCv+H/0WK/RavpkfSo5P4tf8kt8X/8AYJuv/RTV+Jf7Af8AyeN8K/8AsLf+0nr9tPi1/wAkt8X/APYJuv8A0U1fiX+wH/yeN8K/+wt/7SekxM/oSrTh/wBUn+6KzK04f9Un+6KQjMr8P/8Agrl/yd/d/wDYEsf5PX7gV+H/APwVy/5O/u/+wJY/yegD6N/ZX/5N+8F/9eQ/ma980v8A48Ifp/WvA/2V/wDk37wX/wBeQ/ma980v/jwh+n9a/Osw+KXqz82f+81PV/mfmx/wUg8XS6t8ZrLQt7CDSbCP93/DukG/P1wa+qv2E/h3aeCfgHpOorbqmp68z3t1NgbiocpGufQKucermvlf/gpF4Ql0n4xWOvCJ/I1awjBkx8u+MbNufXAr6j/YP+JFn42+A2l6Ws6tqmgM9ncxE/NtLs8bY9CrYz/smvSxV/7Lpez20v8A16n0mIv9Rp8m3X+vU+jKKKK+VPBCvBP2yfgXd/G74X+TpCB9e0qQ3VnGxwJRjDp9SBxXvSsGGVII9jmkeVI8b3VM8DcQM1tRqyoVFUhujWnUlSmpx3R+MvgP4qfEL9nTxHdRaVc3WhXe8C7028h+STbnAdGH15GD719efCv/AIKV6ZfNDZ+PtBk06RiqHUdJPmxe7NGxBUfQsfavq/4gfB/wd8UbI23ibQLPUh/DM8YEqH1VhyDXxv8AHT/gnXDpWkX+t+ANQll+zo0x0m8O5mUDJCP3P1r6dYvA492xEOWT6/8AB/zPb+sYXF6Vo2l3/wCD/mfcHhHxlonjzQbbWvD+pQarplwu6O4t2yPoQeVI7ggEVs1+VP7Dnxi1P4f/ABf03QvtEj6Frkn2ae2ZvkV8ErIB2PGPxr9VuleHj8G8FV5L3T2PMxWHeGqct7o/H39qP4eyfB/4969aWiCK0a6/tCw2ptVY3O9VH+7nH4V+n3wd+J1n42+CuheMJ5wIf7O8y8kbja8SkSk/ipP4ivmT/gpd8OTeaH4e8a28IL2jmwupB12Mcpn8Sa8E+Fv7Rh8Gfsw+PfBD3RTUbyeJNNXOT5coIuMegCxj8Xr6CpSeZYOlNfEmk/yf+Z604PG4anJbp2/T/gnm/iK+1L46fHC6ljXzL7X9V2RIzkqNz4Azjpiv2Q8M+H7Xwn4c0rRLFdtnptrFaQj/AGY0Cj+Vfmn/AME8fh3/AMJX8Zn12eLfaaDbmcMy5Uyt8qc+oJz+Ffp9XFnVVe0hQjtFf1+BzZnUXPGlHaKCvza/4KYf8ld8O/8AYHH/AKNev0lr82v+CmH/ACV3w7/2Bx/6NeufJv8Ae16Mxy3/AHhfM9+/Ym/5N70T/rvP/wChV8jft2f8l+v/APrzt/8A0AV9kfsN6FqF9+zrocsFpNLGZ5wGVCR96vj79viynsP2hNQiuIXhk+x252uMH7gr6LCxaxk213/MeBhJZlUbWmv5n29+zX/yQfwT/wBg8f8AoTV6XX56fDn9u2/+H/gfRvDkfhe3u002AQCdp2BfknOPxro/+Hj2pf8AQn2v/gQ1cdTA4iU5NR6nnVsqxc6spKOjb6o+6K+TP+CjP/JMfDP/AGGP/aMlcV/w8e1L/oT7X/wIavD/AI9ftHa98frzTo721j0/TrIsYLG3JYF243E9zjgfU+tb4XBVqdaM5qyR1YDLMTSxEalRWS8z7t/4I4/8ib8Qv+v+H/0WK/RavkP/AIJo/AjU/g78D5dR121kstY8SXAvWtZhh4oguIwR2JGDivryvpkfbo5P4tf8kt8X/wDYJuv/AEU1fiX+wH/yeN8K/wDsLf8AtJ6/bT4tf8kt8X/9gm6/9FNX4l/sB/8AJ43wr/7C3/tJ6TEz+hKtOH/VJ/uisytOH/VJ/uikIzK/D/8A4K5f8nf3f/YEsf5PX7gV+H//AAVy/wCTv7v/ALAlj/J6APo39lf/AJN+8F/9eQ/ma980v/jwh+n9a8D/AGV/+TfvBf8A15D+Zr3PRbxZIRATh16e4r87x6blK3dn5pJpYqpfu/zPMv2oPgTB8evhvNpSMsOtWZNxp1w3aTHKH2boa/Mbwf408dfsv/EiaS2WXSNYtT5N3Y3SkxXCZ+66/wAS+hH4Gv2Zrzv4sfAHwV8aLMReJdJSW5VdsV9B8lxH9G7j61WAzBYeLo1lzQZ7mFxioxdOorxZ86eE/wDgpl4WutNQ+I/DOoWN+BhvsEiyxsfUbsEfTmvLP2gv+Cgmq+PtHm0HwPZ3Hhqwm+WfUWm/0uRf7qFceWPXBJ9xXoetf8Ew9InvHfS/Gl1bW5PEVxaByo/3g3P5V1Xw7/4Jy+B/C97Fd+INUu/E8kbbhAyCCE+xAJJH5V6EamU0pe1im321/U61LL6b546vtqY3/BOO78b6lofiW8127v7vw3IYxZPfytJumydxjLEnGOuOM4rzr/gohH480f4lafrCXt9B4V8iNbCS0ldI4ZQBvDbTw5bJB9K/QjSdJstB0230/TrWKysrdQkUEKhURR2AqDxD4b0vxZpM2maxYQajYTDDwXCBlP8Aga8yGYKOMeJ5NH0/rqcUcWo4h1uXR9D4D+Cv/BRrUPDej2ukePNKk11bdRGmrWsgW4KgYHmKRhz/ALXB9cnmui+Ln/BSDTNS8K3mneCNFvItSu4mi+3agVUW+RjcqDO4+mTj612Xjz/gm/4I8RXklz4f1e98NmR9xg2CeIcdFBIIH51g+Gv+CY+g2d+kut+L7vULVTzb2tsIiw/3iTj8q9P2mUyl7Vpp9tf+GO7ny+T9o1Z9tT50/Yj+FeofEL42aTqCW7/2Roj/AGu7uCvyAgYVM/3iTn8K/WM881zPw9+Gvhz4WeHYdF8M6bHptjHyQvLyN3Z27k101ePmGM+u1edKyWiPNxeI+s1OZLRHB/HXwHH8TPhL4l8PuMyXNo5hYDJWRRlSPf8Axr8Wrq2lsrmW3njaKeFzHJG3VWBwQfxr94a+R/iF/wAE7fDXjb4iXXiG18QXGkaffTm4utOjgD/OTl9jZ43HPbjNehlOPp4VShWdk9UdeX4uFBSjUehtf8E+vh2PB/wSXWZo9t5r8/2ot3MQ4T9K+nqz/D2g2XhfQ7DSNOhEFjZQrBDGvZVGBWhXiYis8RWlVfVnmVqjq1JTfUK/Nr/gph/yV3w7/wBgcf8Ao16/SWvza/4KYf8AJXfDv/YHH/o169TJv97Xozuy3/eF8z75/wCCZ/8AyaR4c/6+7n/0IV2nx8/Yy+Gf7R2sWmr+LNOuk1e3j8kX2n3BhkePsr9Q2OxIyPWuL/4Jn/8AJpHhz/r7uf8A0IV9T1+hn2J8bf8ADqP4H/8AUxf+DFf/AIij/h1H8D/+pi/8GK//ABFfZNFAHxt/w6j+B/8A1MX/AIMV/wDiK774V/sAfBX4Sa3DrOneGDq2q25DQXOtTtdCJgQQyxn93uBGQ23I7EV9F0UAJ7UtFFMZyfxa/wCSW+L/APsE3X/opq/Ev9gP/k8b4V/9hb/2k9ftp8Wv+SW+L/8AsE3X/opq/Ev9gP8A5PG+Ff8A2Fv/AGk9SyWf0JVpw/6pP90VmVpw/wCqT/dFIRmV+IH/AAVzUj9r66JBAOiWODjrw9ft/X58f8FVf2Rdc+Lug6b8Q/BmnPqmuaHE0WoafbrunuLbrvjUDLshH3RyQTjJwCAcf+yjcR3H7Pvg0xOrhbTYdpzhgxBH1Br1tWKsCDgjkGvyT+H/AMevH/wbgudJ0XVZrC3EjeZY3UQYRyZw3ysMqc9R611//DbnxY/6DVv/AOAq183Vy2rKcpRasz4vEZLXnVlOElZu5+pC6tdKuPMz9QDS/wBsXX/PQf8AfIr8tv8Ahtz4sf8AQat//AVaP+G3Pix/0Grf/wABVrm/sip2X9fIz/sbGfzL73/kfqT/AGxdf89B/wB8ij+2Lr/noP8AvkV+W3/DbnxY/wCg1b/+Aq0f8NufFj/oNW//AICrR/Y9Tsv6+Qf2NjP5l97/AMj9Sf7Yuv8AnoP++RR/bF1/z0H/AHyK/Lb/AIbc+LH/AEGrf/wFWj/htz4sf9Bq3/8AAVaP7Hqdl/XyD+xsZ/Mvvf8AkfqT/bF1/wA9B/3yKP7Yuv8AnoP++RX5bf8ADbnxY/6DVv8A+Aq0f8NufFj/AKDVv/4CrR/Y9Tsv6+Qf2NjP5l97/wAj9Sf7Yuv+eg/75FH9sXX/AD0H/fIr8tv+G3Pix/0Grf8A8BVo/wCG3Pix/wBBq3/8BVo/sep2X9fIP7Gxn8y+9/5H6k/2xdf89B/3yKP7Yuv+eg/75Fflt/w258WP+g1b/wDgKtH/AA258WP+g1b/APgKtH9j1Oy/r5B/Y2M/mX3v/I/Un+2Lr/noP++RR/bF1/z0H/fIr8tv+G3Pix/0Grf/AMBVo/4bc+LH/Qat/wDwFWj+x6nZf18g/sbGfzL73/kfqT/bF1/z0H/fIr88P+Cjl4bv4reHyzq0i6SAwHb965GfwrhD+258WCCP7btx7/ZVrmPBfgr4h/tV/EyKzs1vPEWt3bqLi9kX93bx5xvcgBUUD6dOK7sFl0sPV9pK3yPSy/La+Gre0qyVj9av+CaKMv7I/hosCA11ckZ7jeK+pa4j4J/C6y+C/wAK/DngywYSQ6VaiJ5Rn95ISWkfnsWJx7Yrt6+hPqAooopjCiiigAooooA5P4tf8kt8X/8AYJuv/RTV+Jf7Af8AyeN8K/8AsLf+0nr9tPi1/wAkt8X/APYJuv8A0U1fiX+wH/yeN8K/+wt/7SepZLP6Eq04f9Un+6KzK04f9Un+6KQjMopSNpIPWkoA888X/s8fDPx9ffbPEXgXQ9Yuv+e11ZIzfniuf/4Y5+CH/RLfDP8A4AJXsdFAHjn/AAxz8EP+iW+Gf/ABKP8Ahjn4If8ARLfDP/gAlex0UAeOf8Mc/BD/AKJb4Z/8AErl/Gn7Jnwa09rYW/wz8NxBsk7bBOa+iZWMcTsBkqCQK/EbVv2+/i1H+1Rdz654jkh8PQa9JYzaE0UYtoLcTGPZ93IKjHzZ3ccmmM/Qkfsu/CMf8058O/8AgClb1j+y78F7yMf8Wz8MiTHK/YErrbK6h1Kzhu7WRZ7aZBJHLGdyspGQQR1qdd6tldwPqKYzlf8Ahk/4Nf8ARMvDP/gvT/Cj/hk/4Nf9Ey8M/wDgvT/Cuu+0XH/PSX/vo0faLj/npL/30aAOR/4ZP+DX/RMvDP8A4L0/wo/4ZP8Ag1/0TLwz/wCC9P8ACuu+0XH/AD0l/wC+jR9ouP8AnpL/AN9GgDkf+GT/AINf9Ey8M/8AgvT/AAo/4ZP+DX/RMvDP/gvT/Cuu+0XH/PSX/vo0faLj/npL/wB9GgDkf+GT/g1/0TLwz/4L0/wo/wCGT/g1/wBEy8M/+C9P8K677Rcf89Jf++jR9ouP+ekv/fRoA5H/AIZP+DX/AETLwz/4L0/wrvfC/gnw/wCCLEWfh/RbHRrUcCKygWMfoKofaLj/AJ6S/wDfRo+0XH/PSX/vo0AdVRXK/aLj/npL/wB9Gj7Rcf8APSX/AL6NMZ1VFcr9ouP+ekv/AH0aPtFx/wA9Jf8Avo0AdVRXK/aLj/npL/30aPtFx/z0l/76NAHVUVyv2i4/56S/99Gj7Rcf89Jf++jQA34tf8kt8X/9gm6/9FNX4l/sB/8AJ43wr/7C3/tJ6/X345eKLbwv8H/GOo6rffZLKLSrjdJK+ASY2AUZ6kngDvmvyI/4J9WU95+2N8MTBE0oh1LzZNoztQRuCx9uR+dSyWf0GVpw/wCqT/dFZoG4gDrWoq7VA9BikIr3Fr5nzL97uPWqjKy8EEVqUUAZNFa1FAGTRWtRQBk1+Sf/AAUU/wCCevipfiFrPxL+HGjza7o+ryG81LS7GMvc21yxzI6xjl0Y5bjoSeMYNfsFRQB/M3bfGL4neAY/7Dj8Ta5owtTs+xSTOhi9trcj6VL/AMNJ/FH/AKHrWf8AwJNf0v0UAfzQf8NJ/FH/AKHrWf8AwJNH/DSfxR/6HrWf/Ak1/S/RQB/NB/w0n8Uf+h61n/wJNH/DSfxR/wCh61n/AMCTX9L9FAH80H/DSfxR/wCh61n/AMCTR/w0n8Uf+h61n/wJNf0v0UAfzQf8NJ/FH/oetZ/8CTR/w0n8Uf8AoetZ/wDAk1/S/RQB/NB/w0n8Uf8AoetZ/wDAk0f8NJ/FH/oetZ/8CTX9L9FAH80H/DSfxR/6HrWf/Ak0f8NJ/FH/AKHrWf8AwJNf0v0UAfzQf8NJ/FH/AKHrWf8AwJNH/DSfxR/6HrWf/Ak1/S/RQB/NB/w0n8Uf+h61n/wJNH/DSfxR/wCh61n/AMCTX9L9FAH80H/DSfxR/wCh61n/AMCTR/w0n8Uf+h61n/wJNf0v0UAfzOSeLfih8bZYdD+3+IPF8jMNlhD5lwWPb5FHNfqJ/wAE0P2Dde+C15P8RfH1n9h8S3UBt9P0lsNJaRNyzyY6O2B8vUAc85Ffo/RQBWt7Xy/mb73YelWaKKAP/9k=;" vertex="1" parent="1">
          <mxGeometry x="12" y="150" width="60" height="60" as="geometry" />
        </mxCell>
        <mxCell id="OHi0hXQzuh8hUmMyIJb7-31" style="edgeStyle=orthogonalEdgeStyle;rounded=0;orthogonalLoop=1;jettySize=auto;html=1;" edge="1" parent="1" target="OHi0hXQzuh8hUmMyIJb7-7">
          <mxGeometry relative="1" as="geometry">
            <mxPoint x="160" y="175" as="sourcePoint" />
            <mxPoint x="250" y="180" as="targetPoint" />
            <Array as="points" />
          </mxGeometry>
        </mxCell>
        <mxCell id="OHi0hXQzuh8hUmMyIJb7-18" value="Kaggle API Key" style="rounded=0;whiteSpace=wrap;html=1;" vertex="1" parent="1">
          <mxGeometry x="125" y="91.05" width="40" height="185" as="geometry" />
        </mxCell>
        <mxCell id="OHi0hXQzuh8hUmMyIJb7-33" value="Data Loader" style="rounded=0;whiteSpace=wrap;html=1;" vertex="1" parent="1">
          <mxGeometry x="460" y="150" width="120" height="50" as="geometry" />
        </mxCell>
        <mxCell id="OHi0hXQzuh8hUmMyIJb7-34" value="Data Exporter" style="whiteSpace=wrap;html=1;rounded=0;" vertex="1" parent="1">
          <mxGeometry x="470" y="290" width="120" height="30" as="geometry" />
        </mxCell>
        <mxCell id="OHi0hXQzuh8hUmMyIJb7-42" value="" style="endArrow=classic;html=1;rounded=0;exitX=0.5;exitY=1;exitDx=0;exitDy=0;entryX=0.417;entryY=0;entryDx=0;entryDy=0;entryPerimeter=0;" edge="1" parent="1" source="OHi0hXQzuh8hUmMyIJb7-33" target="OHi0hXQzuh8hUmMyIJb7-34">
          <mxGeometry width="50" height="50" relative="1" as="geometry">
            <mxPoint x="350" y="250" as="sourcePoint" />
            <mxPoint x="400" y="200" as="targetPoint" />
          </mxGeometry>
        </mxCell>
        <mxCell id="OHi0hXQzuh8hUmMyIJb7-44" value="Pipeline 2" style="rounded=0;whiteSpace=wrap;html=1;" vertex="1" parent="1">
          <mxGeometry x="460" y="110" width="120" height="20" as="geometry" />
        </mxCell>
        <mxCell id="OHi0hXQzuh8hUmMyIJb7-46" value="Google Cloud Storage bucket" style="shape=image;verticalLabelPosition=bottom;labelBackgroundColor=default;verticalAlign=top;aspect=fixed;imageAspect=0;image=data:image/png,iVBORw0KGgoAAAANSUhEUgAAATYAAACjCAMAAAA3vsLfAAAAZlBMVEX///+uy/pmnfZChfTG2vvC2Pu60/u+1vqvyvpfmfVpn/Wnxvmyzfrs8v57qPY7gfPW5PzL3fuWuvmFsPj3+v5Yk/aLtPhLi/RRj/Rdl/VHiPTZ5vzf6v3y9v7l7v3t8/14pvafwPmofsiEAAADT0lEQVR4nO3d21LiQBhFYWmgkygKyCEHdJh5/5ccBKEPaSrNDxVIWOvGC63pqq/ACgzZvrwQERERERERERERERERERERPUH6w2ox0a2VrIuVqdzeG+Ky0lJlp17fBmlbTf5OrfL3e0NcVpop046ttSYf06Gpc4+2x2BTPNoEbBVsErYCNglbCZuArVKwCdhy2CRsK9gkbBlsArbdrzbY7FLva5itgM1FmySHdF3OYiths9HGxmK5mZxnU7BZahvnoGVyji2HzWL78o9KnOepYVvBZprXjvp2vn9im2awmb7rZ83th9uJrVJPyha4vBjowFnvQbaiZ2zJZhbVRgfY6s9R71l6Yiv7xZbOYv+NcSTbMsimnpXNu7Q4z2Zfux3ZctgkbCvYJGwZbAK2SvWMbXB7NvsHftmKvrGlehTX3H+Vfo4tdAFS9o0teBUbXehy90/gclf1ju26Ap9OGNXZctic0nHtqK3zAwe2FWxeG++kpfsa7MCWweblXcB8e69c92yVgq3mpr+Wx2O2c/+7e7YCtoDbDkdPdunAJcqerYQtLHco8J09Wwbbhf2w5Qo2AdsKNglbCZuArVKwCdgK2CRsJWwCtqGCTcBWwSZhK2CTsJVdZivNnWqZervqHd3L+rBPzjrGNvq0G0f+98ENmqfOyYFP2hARERERERER3ahksbbS49Yafdpvt712baznbu+3udNQXWN7gHvlfz4eCJuErWvv7j4GG9NQIjamoURsTENJ2JiGErExDSVhmzINJWFjGkrExjSUX8Mnxc02A2zGrPG+BLPNANtJrfkuGLPNANtRLeKeK7PNANtvUXf4nbYZYNsXeT/pkGkot7i7l4f9m4aKfqc3dhoqdK9876ahUj2P7Jplht5NQ7WzA8I0VDMb01B2TEO1z8Y0lIStd9NQ7awF5n1jG+i4acrZjGmoAEBz1yyhZs/LFixud5dpKLc0buWZaSjfLWpTvITNY4tZsGcaKuDW/PcScthCcE1/nYNpqDNw7lefjWmoS2MaSszGNJSIjWkoCRvTUCK2HDYJG9NQErZhBpuAjWkoERvTUCK2Hk1DtcfmTkN1jU0vrNY6aa3xP/vkRcduVSMiIiIiIiIiIiIiIiIiIiIS9R/2ooVCnxMyIwAAAABJRU5ErkJggg==;" vertex="1" parent="1">
          <mxGeometry x="250.45" y="470" width="95.09" height="50" as="geometry" />
        </mxCell>
        <mxCell id="OHi0hXQzuh8hUmMyIJb7-50" value="Bigquery" style="shape=image;verticalLabelPosition=bottom;labelBackgroundColor=default;verticalAlign=top;aspect=fixed;imageAspect=0;image=data:image/png,iVBORw0KGgoAAAANSUhEUgAAAgAAAAIACAMAAADDpiTIAAAABGdBTUEAALGPC/xhBQAAACBjSFJNAAB6JgAAgIQAAPoAAACA6AAAdTAAAOpgAAA6mAAAF3CculE8AAAA51BMVEUAAABln/plnvdmnfdmnPZlnPZmnfZknvVgn/9mnfZlnPZlnPVon/dlnfVmnPdlnfVkm/dmnPVlnfdlnfZmnfVlnPZmnPVmnfVlnPZmnPVlnPZmnfauy/qvy/uvy/uty/mvyvquyvqty/qvz/+uy/mtyvqvz/+uyvqty/muyvqvzPxgmfVAhfRBhPNgmfZChfNBhPRChPRAgP9Ag/NChfNBhPRBhfNBhPNAhvVAh/dChfRChPRChfRmnfauy/pkm/VHiPVPjvZChfRYk/VfmPVEh/VNjPVUkfRcl/VhmfZJivVWkvVSkPXLE8JzAAAAPXRSTlMAMD9/r7+PTxDfb88g71+fQFBgwNDgoICQ8LBwwH9AgDCQ8BCwYCDQ4KBQ9jDv9vC/cBBAgKDAsFAgkOBgS0pg4QAAAAFiS0dEAIgFHUgAAAAHdElNRQflAgYEMQONq9L5AAAWPElEQVR42u2d7WPbxpHGAVGgQZEQAYIECLBnO36JY197d23TtNe7vSRI3Je0///fc5Jsp3IsyeTO7O7szvN8yssHETs/zDwzuwCyLEXlZ2ezdzovPtb8+j8+OjvLMyg1lddRnxfFwhypojifXZydYeXiv99ns2Jp7FUUs9nZCgsZn1Zns3NK5H/BwfzirMSixnLbX8wL40BVMbtEMpBe7GdOYn+LgvMZrIHQG/9yvTR+tJwjFQir+JfnlfGrxfoSrkCGHs0XJoyWKAfhDV9hgqo6RzUIF/1gt/4vqsEc00P/OhMSfTAQpOyvKyNNYMCXaoHRBwPeGr6LhZGsJZpDp6n/3MjXukag3Nz888rEocUFWkN2XS5NTDp/hJAxqpxVJjYtLuAGuAY+axOlqjkqAYfxK0y8giGk5v7LhYlbxSWiqKr032EGgIDm8AMB9eEHAurDDwTUhx8InKKLFMMPBI5VszDpqsBc4HNTv8KkrTWmgw8V/7VJXtUMewT3aVYZDYIVuFuXC6NFS1iBT7QqjCatUQdUZv9bVqBB0G95/6XRpwL9wAfvPzcqVc0Q++QnP58xg3iOICvPjWbNtZvBpjK6tVCdBDRM/j4rxU6gXiD8105AazswQ+zftwMXKkd/S0T+Z53r84IXFcJ+Owko2x1Q3vzd2RCqGv3C/d3hBfWUgQ3Sv+oygOb/PqnoBuD+dXcDNdK/6u0hDH8+ZwQ26P7QDyYbf5T/Y5TsecEc5V/1RAD272gleUhgg7iqngnNEdWTlFgzgKM/upsBsfa/vdJWajOA+PNr13b9pr7WJxb1Wv2V9u2AZoC5/Qsf/22775v66AWtm75rQUAS7f927GvLQ5dlvenHLQiIN/5tz9FN5YdxAAHRxZ8n+MEhiJ6AIPHnDX5YCKq4h4L+n/xyE/yAEERNgO/x7+jjrQv5fgABR3ZTfv3+xlu9bLoBBMiq/7uD3wfsys0IAsTEf7cPsULlwduMYFEi/vdq6MK9bmnV79ANho3/GHrb1JMljI6AlZf4dxKerC/7AQSE2P8b9mJerLDZgQDf8R96UQviAYFzxP+W7+/F3Q+18/3jeE6IuD7/tZN5YM45An0k8d+rDP+N9e3cXnocJ0XdbgC0sg9MO0YghpGg0w2Anfx3bK9cFoIIhsJOB0B9FK1Q47AjEN8Mlg7j38byQsWyV0uAwwZwF9MXFhzWAdnN4Lny7O+jDkhuBnv12d9HHZCbCmtkfx91QGwr4GoHsI/2aLSjOiDVCC6R/T3VAZlGcK3O8hxVFp0cFjhomQDv4n9TRunECcizAU4mgGMSj8ceXBhBaStTLpQkOqubw4EXLNKfAO3SeVVWOaZujg5I/94XSJI9cjABOGRpKWd/ikTS0yLsE4Btem9KLNmPisiZBrBPO7ok35W64R4JSJmQs28BpPrGdO4yUMkYknJ3gEO6n84pmQmQ0Qsyj4CHlL+ZwT0WlGCVG9i/U8RsBcOvFvMhwG3yX03iJWCZ2Ahwq+DjibwzodADQd4C0GUaxLtvGrYT4O0AdMT/6q4ZkukE9illM48DgSGRTiDH+Cc8ASGPBiwRfwEjoXBvjmDcAxjyLAMBkW0Mc24Ca4s/KwGhNoYL5H8SAXwHxfaxt7Ma48/qBIMk0AX6PzEEhBgG8DnALtOqOmIfyLcJpDf+jGV04f2ns21qbbMMBMQ3D2SbAWrY/3tIXMN03/PAAvEXlkr9toJcu8BDnmUgIMJ94QXiL24k6LMVPETbvKRMgL/V5GoBNwj+jVZDZCmAaQbUIfS8lqqOKwGgAeBuBouoEgAM4G1tI0oBTAnggKiz24AiogQwIugObEAdTQLYwQC4sAFFNAkABsDNNKCJJAHAAHwqluMhizgSAAzAXWLZGt7EkABgAO4Wx7bQMgZKsQXg0AY4XlyObcAeoXZoA9wO2Dm61RaBvlcc26xOzwUU0n9g7GJ4h5DLo0E5CoDrIiD7dGCHDiCCgaC7IcsqilFV5J0A3Qe6Gwb1cIBRjIOcDYMqOMAofGAhl004QC8+0NFW2xIOMBIf6GYYtIIDjMUHuukE93CA0fhAJzawggOMxge6sIENHGBEPtDBvTbCAUbkA/k3BFZwgDH5QP5p4AEO0KcO4m438kkQHAPymgK4j12S32e1Q1BPEnnfhdlxdSI7U6QAb5vCFRJAZCmAtwY0SAC+tRJVAzokAO/qJN1z1AqAIaD/FMBZA6g9wIAhYIAUwLjoeySACFMAYw1YIAGE0CilBlA3p/aIZZDKy3bfUSsAzgFYqhVSA4gVAO8DDJQCuGpAHnsCKKyUQApg+hUHOf2onYKuHknE04GNCAw3AMBapQj3TewBMwAQahjE876YJnoLGDEAjQD7tRdRh5QCkA3hyy+tCZSwDxgzAPvgBnwlwoeoBYDWg1fhO5EcANC0C738Y/QVIG4AaEfDGPZhaWdBDgAgaAmmP41BnAOvAABVtNeHBrYAMh4HihsAWgTIz+PQRlEbABB4HEyuwbT3wpQAILANH4PiJ+S7AJEDQKoB1MeEaUcSGgAQfBxMtOF9WAsKAMg1gHgTtvH3APEDQDqRsw+xdsIeB4gdgDzcXUgbA9UAQIAJCJd8xCxh9ACMwW7DfQoWIH4ASPchaRTUpmAB4gcgD+YCk7AA8QNAMgGURLxKwgIkAMAYKA51EhYgAQBIJoAwC+yTsAAJAEAyAU2gzFMDABkmgHAnLpOwACkAQLkVR98rJ80CpAAAxQTYPyCWp2EBUgAgD5KL6zQsQAoAkEyAdRvQp2EBkgBgDHEvUgDYAgBWUWJhvRtA2QnoAACrmhB2bJmGB0wCAMpUvvW7cOI8YBIAZAEAIB0JXwEAXrX+DXmdSBOQBgBdXABsAYCgNiD3/ydbAMCsjX9DRgFgDwCYVfsHgHIitAcAgvpAy2hQfGcDAAT1gQEAqAEAtwbvBZnygsASAAgaBLTec47JAAC3xpgA2AEASYMAu7dEUA6htACAXQffCZnSeHYAQNQgwPsf7AEAuygZ2WoWTBkEbgCAqEFA7RuAGgAAAAAAAACAkFEgAEgBAMIosAEAugHofQOQAYD4ARgBgG4AWgAAAACAII1aAPjV/x0vTQD0AAAARAJACwAAAAAQBMAIAHQD0AIAAOATgCUAQBcAAAAAAGBVBwB0A9ACAAAAAABAFADUACB+APYAQJaWngHoAYAsGQAAACy1AQB4LsArAD0AiB+ABgDoBqAGAKJEiUcJAHQDYPUHKc+j7wFA/ACEeEE5ALhfh5gAqAAAu3rv96PxjhwAcLMV0Hr/i6RJEADg3goIAECjCYB/O16P49kKoD0e3GsC4ITf+8R6VQK8LZwyC+4AADMAtf98HOqLIQBAyN5cqI9GAYC7RDmfswoAQAkAeAEIcUTT+M86AOA+Eb7eMIQAYAMAeAEIYcgoWacHAKwA5LEBMAIAVgCCbM5TOo8lAGAFIMi72yl/1AAAVgC6EIac1AfmAIATAMJWkH1LThk/mwMAYASgDJOMTRAXCAA+VROiCaC1ARUAYASAMggmbMztg5gAAMBrAQgjmUMQEwAAeC0AYSpfBzEBAIDVAtjuBZLBqwAAGwCUWjxkBA0hTAAAYLUApGc02hAmAACwZmLSU1p9CBMAAFgtAOkrrpsQJgAAyGjHycNg2z8NADgtAPEBlyGACQAAnBaA9uZ20sMhtiYAAHBagJ4GQB/ABAAATgvQ0ACoA5gAAPALLSgxKGkAkHaELVtQAPCxKOdBzY4Y/2zrvwYAgI9FOQ1GekiTXn/sChAA+FhVmINZHKMgO/4AAF8PQBsD0UdBVQkAqACQKsCQkbUjEbABAEQASFMgyvM5LABa/QAAwFeDD3QAaD/Apg0FAGyzWLoFoKYgGwQBAJsH22UMIk0CbJ4RTBmAp6cuBulcLn0KQN4OsDmSmDAAX/jdCaZuBHBsB1jsRqULwLPnfisAeSOA4UyAWZz8914kC8BLz4PYLUv8iT70dCP6ZaoAvPK8EUg9C8DjQyy2BJ8kCsDp74nNaUtf8wBArEMW4+CvkgTgte8p3JAxaefbBj5OEYDTHSD11uu4AKA5EQsbmL1OEIA3vhMA7YkAxkpk8UOeP0sOgBfeh7BMTSBDDbBIAW9SA8CiAFBHcCNb/Kk1wCYXvUgMAIsCUFZCKgC9BlikgOdfJQWARQGgJgDGCkCuATYN6eOUALApANQEwFgB6DWgsPibTxICwOZTQRsjpgLQa4DVTOpVMgD4fxyEuQLQa4BNCvjyWSIA2BgAcgJgrQD0GmD1pqI3aQDw1fMQCWDDCwC5BliNJZ8kAcBTm0tviOs98FYA6sEwyxTw+ZFwBAC8tFrvIsQN57Ik2f2i56+iB+C11XLX1OXOuQGgzqUtU8DnjKB4AF5kQRLALmNXRwWgsPqzj+MG4NXzMPn2wA8AOSlZHlF9GTMAdg0AeQjIPQTgGQWYRclPgGwAnj21W2rqLgD3EOCdDuQUYHlG8Um0AFjGfxUo2Tr/WbbvrX4dKQAvLVea6gBdWMBrjSaMD3yIAMkA2Ma/Ia/z3g0A9B9mnZpeRwiAbfzLRahM694G2vrA+wmQC4Bt/OkO0I0F5LGB9s+qvI4MAOv4M1it2hUA5WDCZafXUQFgHX+6A+R6ItDJprC9D7yHAJkAPHtsfZUMRmvjDgCG9ETITy9jAcB2/sPjAHeZQ3V0ABYZJwESAbCc/zM5QK5Hgl1tCJB+4NNnEQBAiX/OsL6lSwBoX5Gim9QvX4kH4DVhdcslfXU7p/Gn71May9eHvtfzF8IBeEJZ3TXD6q7cAsAwDKJ0Alf6QjIABPvP0wFQvxDjJwXQjiu8eSYWgFdfknqsKmx99ZgCaCfWbhsBUQC8pq3sMoYEwJQCFjSr+kQiAM9e0hZ2b6JIAEwp4Jz2Gx4/EwfAq6e0S+IwAD4SAFMKoJ5afP4rYQA8Ia4qiwHwkgCYUgD54Po7LygEAOrtz2MA/CQArhSwpE6sbkYCMgB4Ql5TFgPgKQFwpYA1+Xe8+UoGAI/JV1KbiBIAVwpg2LZ8/oUIAMgqq6gSAFcKqHJPP1c8AEVcCYAtBSxLAMC1BWAcPA/6gNqoCBAOQM+zmJ3H+DOZFuK2UCIAMKXTofQJAMfRIKZWIHYAmOLv9iDQHYOrISICJAOQM63jLvMspsLl5En2iADIK6ZlbHwDUO64CNgoBoAt/m3mXVy1ywO8YgEol1xrWPsHgP7eMG8DIakA8MW/CxB/tlbQPQFSASi4FnBYhQCArRWknROOF4A12/odgsSf5VlRLyNBmQDwxX+bBVJj4iBAJAAzvsXLQwHAtSXgmgCJAPDd/65eCON1HnilRa4JAMb478pwAPDNA532AuIAKAvGdauzkNpyElArAYCv/zcOXwjkdy/D6VR4KwuAFWf8hzIsAEzHWZ3vC+R13ff7tt2FB4Bt/u9pJ8XbptCN5l5+c31Lh76/QeNfGq//S19HEf82Cy7eIuDnhEhAbVhXK3gB4O4ErgkoEX+5pwCcdwL+TooG0Yx3qToZV8U5DrohYJVq/Ne8C7WTcqsceK/LVE2S4Wcd/4QfAd3WyHxlfpoBz6or5kXqBbE9cBOQXhmYcy/Rv/9aEt3cV5daGWCd/t3o2+9+I4mAPTsBSZWBpmJfnu+nSRQBW34CljnS/736YZpkEbAa+C+y2iD936Mf307SCOC3AYmMBR2k/ysDME3iCDi4ICD6MlCuXSzLX6ZJIAGji0utLqKOf750sSh/nSaJBJRbFxdriniTQDlzsiJ/myaZBOSDk+s180idQLNwshx/fztJJWDjBgBTXcZo/gtHq/HTNIklYO/omuOrA46y/7sJkGACRleXHVkdcJT9r/SPaZJMgCMjGFkdcJb9308ARROwc3btsdQBd9nfmB+nSToBrlqBaOrAZeUw/m8n+QTUDgEw1YVwBOrC4dV/+9M0RUDAxjhFYCYYgUeF02t/KP6SCNgbnQhcLtxe+PfTFAkBnXGstbwTY6Xr8Jt/TlM0BGyNMgTKWeX6in+YpngIKN0TYM5rTeE/Kv7KCDCFDARWaw/Xelz8tRFgisvgfjD3Ef6j46+OgCsz8CjkzT9feLnIBwZAggkY/BBgqnmYEfHqYunpCk+JvyACcl8EGLOY+W4Kystzb1d3Wvx1EmDM0qcdeLSujNj4ayXgqjH0s2GczyufV3V6/PUSYKrzC7d+oHzkyfaR4i+JgJ3xLWcQXAV/6f1q7OKvsBt0DEGQ4BPir54ATghCBf96/mMdfxDwHoLZI0qDmJ/N1stwP/+HiSIQ8PPAeD27PDuNg9XZxbxYBP7dtPhLIqA1ErQozmcXZw+XhbOzs4tZsRTxe6nxV3VC5MTKUFzrfPZe8+t/Wxph+us0JURAb6DT9P00JUXABiE9Rd/+NE2JEeB7KBi1fuSKvygCdgis8/GP1ucG09IPE6sEEdAhuEfoH9OUKgFoBo6wf99PU8IENLCCD+vvP01T0gTkMAIP6W9vpylxAmAEHE//xBPg5o2SSZT/v0yTCgIwE7q7+/9umpQQIGR7UFj3/3aa1BCAftBH9yeagBqD4dv6j++mSRkB6AZuqf/1f07qCMBQ6IN2dZapJGAFL3it7uaZNpUEYCRgzPDh82g6CVA/GW7/dVpZJwG6G8Lho89iKSVAsRMYf/FEu1ICsoPOdmD36TuutBJQjgrjv7/rhRZaCcgabYPB7T1PKKkloNxrCv9wuHch1BKQ5XrMYPfQk6p6CdCyQdR+5gWnignQ0A/sms+ugmYCUrcCQ3/MKmgmIO25UHfkuwxVE5DVqSLQHv/OIt0EpIlAe9LL7ZUTkB4C7anfNtBOQFoItBaftlBPQLbZKQ4/CLhBYKs3/CDgXSGI/exwR3lPJQi4ngvs450ODj3xGwYg4GY6eIjTDGw39GsHAe/NQHwtwcjzTTsQ8GGzuIupEuz2bN8wAgE/V4Jo0sDYcF43CLhtCOW7gd2B++NVIOCjw4Oiz48OnYuv1YCAXzQFUkvBuHH05ToQ8IkdGPVEHwREwIDT6IMA2QwM3cbDN0tBwD2ecB92v2jb156uFATc2xtuxjAzop2XWx8EHDUn7D13BsN48P7NehDwmZ3jw7jzdOf7Dz4IOLIcuPYEbd+U4S4PBByZCvYOCsLQ7jd56EsDASfkgn7kSgZt19crGZcFAk7EoO77trW/6dt+U5eirsgTAf+VpaW6bvp+37ZHucT2Ku59I+WeD0TAb7NUldf1DQ7vdBXs/Yd/3lz9j1L+Bfgh4De/yyDVBPweC62bgK+xzroJ+AOWWTcB32CVdRPwRyyybgLgAZQT8CcssW4C/hsrrJqAP2N9VRPwPxgE6iYAc0DdBPwvllY1AYi/bgIQf90EIP66CUD8dROA+OsmAPHXTQDir5sAxF83AYi/bgIQf90EIP66CUD8dROA+OsmAPHXTQDir5sAxF83AYi/bgIQf90EIP66CUD8dROA+OsmAPHXTQDir5sAxF83AYi/bgIQf90EIP66CUD8dROA+OsmAPHXTQDir5sAxF83AYi/bgIQf90EIP66CUD81RHwze33v+H9Xwr125+TwJ/x/j+V+t3vv/7DN3/8+k+nvP/1/wHH8ZLx1vbBfAAAACV0RVh0ZGF0ZTpjcmVhdGUAMjAyMS0wMi0wNlQwNDo0OTowMyswMDowMIEMRWQAAAAldEVYdGRhdGU6bW9kaWZ5ADIwMjEtMDItMDZUMDQ6NDk6MDMrMDA6MDDwUf3YAAAAAElFTkSuQmCC;" vertex="1" parent="1">
          <mxGeometry x="700" y="265" width="80" height="80" as="geometry" />
        </mxCell>
        <mxCell id="OHi0hXQzuh8hUmMyIJb7-51" value="" style="endArrow=classic;html=1;rounded=0;entryX=0;entryY=0.5;entryDx=0;entryDy=0;" edge="1" parent="1" source="OHi0hXQzuh8hUmMyIJb7-34" target="OHi0hXQzuh8hUmMyIJb7-50">
          <mxGeometry width="50" height="50" relative="1" as="geometry">
            <mxPoint x="720" y="300" as="sourcePoint" />
            <mxPoint x="770" y="250" as="targetPoint" />
          </mxGeometry>
        </mxCell>
        <mxCell id="OHi0hXQzuh8hUmMyIJb7-52" value="Looker Studio" style="shape=image;verticalLabelPosition=bottom;labelBackgroundColor=default;verticalAlign=top;aspect=fixed;imageAspect=0;image=data:image/png,iVBORw0KGgoAAAANSUhEUgAAALEAAAEdCAMAAAB0XnbWAAAAe1BMVEX///9ChfRel/bS4/w+g/QwffM5gfQ2f/TP4fxalfZSkfZRkPVWk/bx9v78/f/1+f7s8/7i7f3z9/6zy/re6P2UtvjA1PtOjPWjwPna5v3q8f6ErPfF1/vM3PytyPpvofdqnPZ8p/ecvPmLsvhrn/anxPp3pvcmefNCifVyGmkPAAAPA0lEQVR4nNVd15arOgxNsU0ogTAhkN7b/3/hAZLMgG1kUWxy9sNdd50JsCNkNcvKYNA1/J91GK3G49UqCn86v3vn8NeryWQy/mAyjmZ9UwIRRAW2v6RDv29elQgFui/Ok3XfzOQIxnLCuZyDvtlJUCHgD+fvEzNMOKUc9s2QQ6Qg/HWU1YS/jLJKJd6Uv8c0T1GEU8pfYzFwfDP0zfQNnE7kQv4OGxfICE8mor/+GiGHIt1xtJ5OZ6HoBL9CyL7I99cmzETOfVJ9Y82RKptdXscnXxAxr+D3zn+h/t0IpxSiY4u+TS147yF+gvtKvXuR8luXOWL1J8yCe+myj5TfQu+KXF54kewjkfojJlFWUqmDCL+ZsVRJy4q8Ms2Qx//O+H/QCsSyKi/O3m1FSYDSVM4v2+Peo7eikspzz7JSTKamGfIoxPNywnzg0X8RTkGYj+36j4R+l14FYT5ANrLwgmlewA6ngeyNvoO3CpVY8RG97tAtGO8vV9t1XcdJ/2MfN8ud4CSqCQdilq3Xf6znJ9f17FEBtu2413NZFzNaHOFoFYbrUFLa0hlr+vGdY/tH27VvhSf7IuGMqryIoY1vsLcr6L7gOZc/kmsZYSm0idif2x5A9yVo5/LrvcpuDKhz6oopJkdHxTfn7O1lV0OFWT3ew1+4GL65blxFoQGENTnoSK0QBTEn8xqE9cRAMVrALzy3PRNe1iTsllUZIqzHTCxQS64J4bEeHW5JuLryPYn0WImWhKXF15zvWFNBc19Xh3k7kWItKXKvdDm6XQeEU0zD8e+GQvo/q1BbeLmuYYZzwiWV+CkauWCaxm0pwvVUZ4p0gAIfFWH/4BpPkffwqrNTAISvtn03THgGKLHnusf75nI6us4nAi3rcEp4NHLkaq0NmyqdsN3rbfVePMH4dndtgXDwUijHaPE9qhCx7Wy4rCFceLaU8Mg7m2RcIWLvIEkk1xtu0X2udQxWeypEnEgj9jJyHX5/v6V+ph8spCJ2EZm6fyxc6hnT5KnUediI6k1wLX5XJ9bP9YVYxthDZJFB2e2Ys8l3iVK4W/V1Ae8nHUOOT6YU9kV9nX/lv6lnSC22EgdtqxdRcBRejb0xQDfFWVQKeSWijInEJNpmytlX8cke5smS6xwj1eEfUY1xDncruRCxXtsjFNXYQdXHAgljI25vJzK2cVeKVhFjYtpjLogK+9y9KOSDXq4v3ITnYixFhrH4djy9XF8QjRvWEaxFxq5eri+IgZuDrP3PRENuhPFFeC4mzMzw0xPj5jKe9sRY1GNnh7tSUpRB2sV2uIkrD5nIr8TI4qiV6hsSe7xofKWRmF4SHoxwV4oZuBmfF0niClwuIYkrkL6nHSQpCO7BkoAEu2ZbQlQKnFpI0kPPTKInuhBUHh/KchD9bDPIkv+j+rKT+EXtk3ayOSQBzci7qa6SbVWayqUHB4kiO4rYQhIFpYxN9RZLIvMU4NMlqb85pZCrxcg+AptwvqyMZE4pKsrHEGVJUjpClWW6gqxYknV8TCqvWEoom6wfy4olGdxFVdldUjIwWqOv3C/17FsFDdEa20b3QQZCmfKXs3fZytRTDCpcs02vkuD8V3aOe10sl5xO+4JOGN7PGyzAbWnb9o7cBVyZwzZSWykigAjnMuScILfL6ppvj5dbuIIQ+fSiZMQdZRyiATdFB4vDOZTiV/QMFec5bOAOCyHDLsj/2FOreaWJe4P7+F8q7fR1HkwakP3B5Qzc9KNGmK0/TfgBKQs7Sa90yx71eSbl5wDpssu9/JWTE+73SIp/gZpZeBOWBlDevfcTKfsEkDJnEmLHNRlhVmF1rNQMvoAS2NURtFHcqlrohUSu93O5H8wurpyzmT3RRog2Us5GE6O6CM+uI6n6KN3xerWd75fnxWWz2VwW51u8W5kzf9uNxx9iqS7I+eFuebLZg1LLspjFXrAYzZAcznFkROn91X5zdF3Hy+E4rjxIW8cXe2hRxggZykEsixJvERtZB/50tYvn+9s83o0lrbnT7cJJhVrJtcCaMIsmm7jvY/Tug6nJFpCyHu17JR1bdfi+VYQe5/2Zcr824Rfpx8HMDoQEi/pCfpGmyb4fQYcNGaeg5Gwi8pvxG1HHWiuvLGfGLrpXoX+mlHvGljZmnBvqs9a09maxocUHF88WjFMwqm/fcvukmQY8uX9esnaUh1aix27M7u/XT7n7z9qoRQ5CDxrUec8+oiRX7k/35mvvA8a6ro2GNv2j9eAEsmst5EzMx07FvKdFMVp8Ob7l2vtw7m6vKjjwQuS/UHMvUqJ878jQjZ+8MeClMW1rLd6wkk7mAtyosLDIkfvMpiPKxOpgAV5ky4pyycS4g7X3vnPbxh1/JFVRxjc/ee0N3BtWu2J0KKjwB1ygOO9k7eVgSYuAblWZEfH6FiASPSzIs3ECO65O4QjfYHPpaO3lNycNTcYEetOUu2nU2drLKLNGlCcP6EUzvnIx6k4tUtAGOxW7h+Ke3NorJdWZVrfTbKu2Lq9Ui9/i43ArY0iYZdFHqtPP5DmklFqUkUbUybBmuW49VD2G8L3Gi5ReMtrc4vH6JwgCPwim4XgXL0/ekFr1WZOk1tn7IFE/4cEfQb3EFZPng9X+TmhdY8Jq9fu5iNuzeq1Xq2VC67kZVqOf4IC6tVU3BA/PiRhVAaDIRugsWkPdUEiqEdjdrRragY3xJ1hnkNRnnK7pC0MrB8HZuCn6fo9mR8VmC4aVM0kwgdwIeTtm3ZrGhbMT6E+LD0F0bixxOkEelzaVyWiEVD21KocK5/yGlbTdLr1ZKDETvswnwEbdhy7aZ72hPL0RKB8V3xzzsgjrpk62QFlnCiarIYYw87qqU+8wlAmD9AJTvaYdNkbPEoRmQN4aU7ymne5N+3cEZb6YWrg8UV7cZXHsBWk9hHtopR9ZKr8vod2fiF6oKVsVLYtTBGEdxXQ1ZcLkQlYXzzRIOINaMYT6b46Z0tvBlrEFNsq3y+fBr2+qEjHV1wB7VD2bSYSs3H+xNDbAKvNKwkQhq/aXidbz5mulvAQ3MFW0SRBL7xZyrKL85M3FTSFiTWbiD6rVJ1TvFe7OQqe1jeEoXjKnlYotOVy+1Q4rhV7QckVHse35MNFwolj75ZRPYdow+WF7+IqNzJKrVqw7qcfpHgp7UVp7LqgUTYo/jQAnmcWMb60IKQwRVm0LPv7qs7BSdLGPiQSctRWIKPYwzJ1PgUt+f40dsKUQtg90AhbyrwUANzwJvz2qFbAn+w0VTuA2mJGZFB/AyfGHC2y5m+ystQDY2EWc14fA7U6CHBjSFeA19S4bgj0zRtddBnDtWa9qCRgFKYuhXQM0A+++DkjZVbXQ7vED6mi+xzeDdJ2ZP0AKuTMyzBw1aAINW4oMoLXIw/ob8AlCjBOGc5HcEEDFKzOhPAdw6WU+BGqjMhi2/QGyb/nSgxoJ+N4aIzgDQiZD2FQQ0sdpgi2oFtNBBP290c5zW4DbRzQEjRsxPWU+B9g7l5o3yCvKC83aATlhGoPmuBdTMRhcYesFuRjLyORaAZCHsG6DBfDnXowbbN7YebCB1LyfE/JQwJ46PSjJq9271A0gY0A2YDwP7mHrA1R/IydoYRLSzxgC6Fxl6iKAuOMVP5sH5KbJATR+3yjjw+DwfXoMrrw7uPJ6sm4g4xNo3fhjH4YA5nEbcDua9jNRA3LDbDE4Q07c3OTBIqDXnnppqHHFeAnrBahiwfagmputxP4CqrWmrx0014YLmy+ARSprBxc0+GO7RgBWh2k0WIOZax8uBK5uzgYBWObqYwACZG/zshqo530MtwG3QrJTKGAodDRPOAALyFnTKORhhtT8dLwdqMbZSwcVvQdFBrvY8uweNCbCgVL9ANU4j81+wENXxitvcCP/qyML3Ed/mC5ZQMWKz146uPSMqwW8zfuytmC9VuyM0wu4KeQdsE/hD5mNkU/gvvSnexM8UG42fgPjtj+HBiqy2S09uDH+dz8UbsOoedaxFRQzqx4f4flwX2z9g8CNoei7+3MOoLqbFDIsuoKlhe2bOU1WHO8o9Jr6is7YoxnCPzBhwgqfVRysMNIaqzx7UHK/qolARuIhZQNyKcRRNNIaaPFOIwpFk3f52L7qSJOBXaezQsTc5uJacYSEOLoDIpVOCL2NsEnWe34lg/9UnGERwl7VV9Qdw51UR5vEWrZyKonW8rfyRC4T2xCUI8/IU197iPq4qCx7g3vps6+pLVKOlJNcpW5XebKo1giMOlCPUOGPr7yhnmRiaYnipmrCFZENYnifDhv3o7Jrw0IozwExxKh7Ka8RhCsjdKVNzigfunV+kVol0odW7oRiRuGxUZeb1VvMvGegwUp1EPJFedhdSoIb7wEdtduj7tDVKWT/hHscmE/gRgPTQxfuL3qiRm4o+nOVZ2rfd3m27ytb4saaDFW9ozi9yKZYtBNz5CGnCqmP5GInyzHSQpunF+y4KYTPws8npU7DZgZ/iR5ERjA5MX7SLqGjBpyDpYWfQYYr7oB1fYHztp4PXJ8ZcsXlhJGap5x0UOL8XKCTE393sOr8qAE68ArqzTO2qH3DtECNL89a493qDEcIsYO2Pre2qHcGVXoWb4b15/7VMKD151ynpB/2Io7EMGk9vp3Io5Y2vFCvbj1vMqI0G13JhqP74jafx3E8n98Wd3vImkyCzERQ0w4hh6bJHkVYNnTTyn49puGwzQz16yOIMT868WjgURHDlDQSbnTKrkfKzQj3pxik+W9DNF9+rdCm+bKRkWuLdn0zW9ygxQ5BWMvENxp2OKAbAav9SMHg2N3gdjVaD9DPgRvZ2A3hjtqH4xoxeBuwobTm2gRrbOLbBoTeu9wEWGrXDMY63hoKR3o5P1rWP2SYo6cW14c11HJ2cXrSJGZCN7oOUE1sDV6b0JHOTe9t0jFnQhPdh1nnNVN4FV8TDYCx3RFn8hiZOiy8uzZI5nm6lnU3eWwqWpBWrju9+mz8KN328GhImliPa9zLz9f/7I+0zo8O5GAWPcz7Ob+aI4g3CZ41ozS5bHv/VWo/nJ8SRsGlmP/CLXM3835/Br6I2W55T1JW2Y8eE5Lv3GYFrKyilQqWEXezn/T9g7wSBOEq3i8vp+vITZ7DxE3s6+ly3sfd/sL0P6Fp9OHPkRtVAAAAAElFTkSuQmCC;" vertex="1" parent="1">
          <mxGeometry x="708.61" y="69.44999999999999" width="62.79" height="101.1" as="geometry" />
        </mxCell>
        <mxCell id="OHi0hXQzuh8hUmMyIJb7-53" value="" style="endArrow=classic;html=1;rounded=0;" edge="1" parent="1" source="OHi0hXQzuh8hUmMyIJb7-50" target="OHi0hXQzuh8hUmMyIJb7-52">
          <mxGeometry width="50" height="50" relative="1" as="geometry">
            <mxPoint x="720" y="300" as="sourcePoint" />
            <mxPoint x="770" y="250" as="targetPoint" />
          </mxGeometry>
        </mxCell>
        <mxCell id="OHi0hXQzuh8hUmMyIJb7-55" value="" style="shape=image;verticalLabelPosition=bottom;labelBackgroundColor=default;verticalAlign=top;aspect=fixed;imageAspect=0;image=data:image/png,iVBORw0KGgoAAAANSUhEUgAAAT4AAACfCAMAAABX0UX9AAAAzFBMVEX///88Oj7iWhw5Nzs2NDgyMDUwLjMsKS4xLzPhUQA0MjfiWBj8/Pz5+fn29vYtKzA/PUHhVhKQj5GHhojv7+8oJitFQ0d+fX8jICbh4eHgTgDhUwhOTFCWlZe+vb7p6enMy8zV1NXd3d5aWFumpaezsrPCwcJ3dXhhYGP53tLzv6tpaGucm52rqqxTUVX++PTne1D77ObkaDbqi2X308XkZCn0x7jrlHPupovxspnogVr54tkeGiHmdEL1zcDrl3rlai7wrJMNBhHnfFY4ZTTVAAARXUlEQVR4nO1caYOiyLIVk0UQwQVcEVFELHFprb2qq2tq5v//p8uWG4tV/d4dsW7n+VIDpHQSREacOJFMrcbAwMDAwMDAwMDAwMDAwMDAwMBwORyOh6qn8H1xvD3dn25fq57GN8Xd/aTZbE6aD1VP5FviRu7UIzTlTdVT+YY4vCXWC+3XOVY9me+H53EdYvLCEshv4oicL4T8XPV0vht+ydh69eY9W76/h8cJYb765LHq+Xwz1Juk+eryXdUT+lZQx5T16p0fLHv8Bm4y5mPZ47ewkTPma06Y+30dTzBzoAzCssfXcbhNC7bT8wS5X2n2OBwfNr+YNoNxeEsSb+f28APS585b4dDXzftpHEL+cXPhSV4vjp0mTBg4ieSyx+H11+P9RJ6kpmbkBgLaTH4gCHSzTtYeh7unl/vxhKCHk9vK5ntleJZTg4UL8ngPTYSyx+Hu+UUeTzo0tW6eWGmX4LFDGASRmGbnV7RiNy+nptyp59B8Y9kjQSq3dH5EB0T2OG2e3mS502zmjRdefal62lcCuF7T1XqDOHRTnhS4XYoxU/UT3NRR4o1Byy8lYGUxxENqrnFK5Y6nwtVKoSkz3pciTbx11OTYZBWExGLkSp6whhIELNlQKlXfsiGvM5HHfz1tcOB7r3TG1wT1L1iyqfDUDZFsm82OLL+9PxxqKsrJjDJjHNK1K3/gcyh7dOTm6XbzGvml+g5T8oSlDYQ7aCqyPx5xmWZnMpZfnu+gqZ6g9Tr3bCdHjOPN+6kDVySVSzdj+f7l/Y7wMqIaYUk3hPrr/U0mRIAxtSI/Hl6p4zsUDtkujtDvft1GKgDJS+7PjX+tw7HjP70Noh43t6fJJMONz9awhxNKun84ZXndhH7XydcV44/y3xxuUTPkT0666uvHW0cusF1zIp/OJIRHlHTf/mCR7+a2XmS7zmRy/3h3xi7PKOnKfy5lOd4WrNmwpBi/fZxvW6ASuNn8daG5Xh+Op7wO1ZHvf3y8fhLN7uqMsoQFa8Z6sd9tPmfAR0RZ5D846dIiVLMzvn/cfCWJ4o2T8p+sE9xSGtTp9uGLKRRRls6PPzjp1v4hzNe8/3IQQyoL3fa9Yhi2N0cHo9Vq5YzwxYXnzYihznJqG/DKqhX+0Ww4YOTZIeKTtYz3Netvz1+yxgF3fc+w6qvCcjgMWvCg+9McmsISXbTMnzt04LlDSfrZTQ56PwMt/DPn/06Nv/spmebQTW/1TAvwYc59/8ouiw9MmP+/z3UZzHgALAMeBYq17gPJSQ89nVN68FrXFLkgMFNzrvVp9GclmqloPBD667U7TQcf/spwvuZkXH/+lAVj9xt/D9YyFTlOggtU7UuethD11ESGy7f5IL1m60ow0jRnER+1LCketJSs9KeutNUMQ4P33ch5ziyH1QZS6IuBKo7v0Zlc9MWea67SI2PIzWuGLnnJ4dK0uuI+sa3hNvAaj35nxovW1/3kREsSHerOT+OiWnf8SRTEnxtdh/vN5l7PD4Kgt1toBZd90TICCS45x+zvvEBpJx42s/TpYthOYpujmHPidyseuGvXXbf1NFAuhpy13/uEc23qRXsGOnLz9pwBccl2qt79Vr29rgt8CEUXAi93fWQKu1oPelBtKQLJFIfb5Gjb0I2aqSeu6ekiue68cGQIkWuknmtLQNeHPWJI7ebHOKvyhZDrD2cXME6+VbvfyjIVwCHwpuXQA1RfaQ96Lu+mD9QLw7/rpwYxTGD1em0xMeZS14m1W+uJ7m653HWF1DlrU931djvSQUPcPDYzIbAjv4dONRtkJkLgAe/4q9T9tAHgORo8t6OGOApQJEkA/YTqtQK9qxnQSt0GL0gSSHPHSpTs6G9iaDVNvLYJs7YvdYsmcXw/kQacnEL6otr99qxocHJr1N6Vq+R+C1fkcgAmZb9ACP2r5yvAiQ9ne9PGv28LQXhxzYPkmqX0vdF8m4xUgRT76FZaJ6ON0J6L+dyo5XDc3I9Tg3TGT5Hr+RJvnZn4HY5+1VUeTjvreglEwn62EpurNdSTqDgHQ+wVfqMfGcPWh0nK8XReAPzfiZ/OohQdWnEgDZLRoz4AvKI4RVNRH14mk4i3RPu7tR2vcPz6zMzV2+obHaN+sfU40EDxSXX1dvwfSrrwVkOAsvNcl+Kg5whDJznjtQVBUNR0pBXZ0XCHaeKdS2F2UsrWpHp3K8vyR+R6gRhGY2Vwbu53aMffuCL3m+2VYuuF8c9CJHkxShabMUv/LvDjG4tRHATV2QybdLVAV+OR6giyIW0Wo3xGr1HJoW2l+K02ttS1bCZ+mVTsfkGp9ThO8D9h/v8a5q6QTEGyqfPTUe1AitBwA2W92ayk2WGbeLEquqST9AUMB0X8+QKY9eFLpRh4zft7VXut//W+QUsVbRmqZG/VrI/Mxbd7O9vr9QV4QuHsz2/w72COJgHIVe4pIbU8/DOZyKgDd8QbXCr4GmarI2O5SaZc+CmLEd35Jz/+9+BI0HoWYb55mLIH6dcKUf/3NgqS6KPBzuXdT7Og8/EBWqeDyH5A77XO/fLfxVLMT6s2b4OQx7SQ0he1lO7fPxDRHl/c/Ry0dM0FOqn5Id3q56veC6IHQ58yQMlrtOcjbxzVHgh9ldzWTGxCvRA8+JZBmzg70iVrVPqbSyCAVLQBFZ5ay01MOq8dC/eHR5XvpZNvt4FCNHl6Ny17j8bc7vrr/T7oeUVlVxbaYrWNhq/97Wr0G76BEhqqfIygAYnMoV7yecLFdT+0SDikukcoiXqtVc/l9AbPR1WXBNzueRdVF911W0qG86Jk+V5pNJ153UECP5pHC8UURPv8NBcLU0IpyGDy9DvP/l9ADxOE/Zk6IIaxpEUtDgjmYFE6XLVdU+BJFsmbVnFAdXxTEpQEcd03QmUkDMk9GGWUgOhRZiBf2nxbLLXw67OLS/PaDdJ2qS9w0xKPWrlCvpQGQpB3WGOgEIXPMAoJDjqRihBTyK8AWNVqD/dygbiafPV7UdgCnrhYqMKlGAV63njR40hBUQjUulKxDiFkZdjaaK2TA2Kh2kMh2YzH7LA5Y/89/nrsjHPfol7+f9G0aBNGMbel4zyzRJUJDdLPL+B5u0BATO39c0UNHSnUncE+Mh+ifWAfjbF/wss6Xv03Hy8yvSewgr3Na3LyfBnX6/KFrpf+yspGTbt9Zjhok/abren3wse9lC5cFEp06KDbCdQLPrw+/3OPdkI35cfL6xueST6ZuSoc1DW5cxACWljwzhk7/Fc4Iv71dPqiEEWQlg9tGubZ2oKDtxvml8frQ7SMJ5PJePJcgTqkUW8f8EUiQeYR+TA/0vaho6ZtUldD0hIyF/KMskbmdhocjZjnaXs4PuQtI8QBleLgrN48P70/fWlP238fqyH1rCAvEyyJRwQNAawHPd8K/5I+Q4S/OblylYZgBQN/zQnkeAlyYXWAc24k4Ct8zPMMNFZwjDUcoveqEh/PoUtFeSA4mesOti/Q22n/J+S5rogNQlSmBiH9K8rATh1tPiUaKkhGMdC/DaS9HyN6ETP4T4I+kk05sVe7Rmg+bT+L9r/ZHguC3JZIEtqWI+yHwhn2J8D7C8JfyCQBS7EVDKqg72mtGNFpJFdxffQjpTLh+xNoa4L8RUaiEukALV1xn1nYzhDZT4RBHRkkzEOZPK4FuMTpJ6dQXKAl+R0Otqj2DSrSvT+H4VLtDt4iIpmDXFP0cw+wwo4Je7gu0g+tXBQ1sCMPE2+FJTewqHt3qfcZ+15wpb4XYWFR5EtxUSGh+kh4cwuqM1Qyg1TgwgIYVyBV42Iipb9Ql8qsTD+35WH9BXWnOoxoJiKgdz1HwSnHjSMYiJGkmw/QsVTIIJG23Yg5iLZOj4UpNWydNZ9YXdvgS3DoOkGHoQy5l1TcNULLTI+vr2DQKmluo2IsSdUjaE6R2g9CLHI4/JrXbgSbpn/pZij0IGVyDJIcktWIYlm7WMhawFCQtDAQRRSol7Po56qWxrLwftcDmyoteDc+iYQjpbiaw5KDGD2fAb1JKOFoM5hZEvOhmoOnFqeTs1623XuF2Ir56W7T5wP9ktDdgo4SM5c55GumUzxcg7kiMZ+HXhkVWFd53nLtySPElBQGktiOM2PZj6johXWmslAFcyofxz7YaaH6VFSX0kcURr/OooPAgEh4IH7blG8VAW1SiFMLrDjQFvv8P5GOSFY3fDuJqoeAu5Q9ouYRK9vy8EVoFH2O1hPMJ8U0JMQcjhaiEchZSz0FmS9mKhaKhNQg1KUM3xpOaaD/WTOmaswsHLTNkAeP4NxLA7eHgmOUamFiEMpkfxUu3uRzEHj7Bj0eq6NetPUSzujq2UvNxtpUZDFUupeaD3oT2EdrHZqv1PtQ6kh0KWg+na6OkcPxK4Ibhre9dvZSw6Emshgq3fUSFd+gRHX069LYh0JZ/D5QSUMn6hmmoNEogpGa5W3RajDPyABb3OIKF+8UHpXtkJ3CHJkER6wXlHQvR3Bdxv1HD22josyCd1cldAlLYLx7Vexl1s2KSoiJgSh1oIkDqzDsIB09fVAU88t43xzePu4/QrkqU0/jOSSb6me4oLwmyXQ2HQq8S7vfFq5Gfq3hSJUE8Tz2qKOTEBu6QVYAWyINA4dnKPEUzyH9FabR+rWwF21rNfJ2wZLIlBKaiQ9REVpI5gd84j42UomLWk4zXNnEwbEFxbCMXEVsTktOqANCZ70O9rLbJ7sGACDDFJLr4uU3aqO3zomD7PJVcQNOT/WmGRbqudxj2lMcDWKmYqwLK2SNpH0JDAn3jq5As1dtC/V5BEJEtvHjR2o6KmGTcXQ6WGCJHy0+3J/Nic3aNNpeAYW8OJPPimsaLFhjsu5hPl9aAF0Oqkuo4Q24e741xe3Y+PloEUYMCIOoW6KhhhOFhw3O90kNzwlE3SGKwOgXI6QlUgEE93UllJBVXPtyevXsxaP8ilvORyNn28eSixILIlO65cCbwSqW5A1nyhEbhkgtjlDqgLTfLSKPNebe3uQ5fVQz4LVYTnQQ7aMcdYESbxvvRiCy7xWwF4MSJIHAWX1Abj/Tk8+/cy0Hpe8GwXoPyJ53g+SENrVnoZEMb8eRQldrC8hz4s4IIuVDyh4rRPvIHYe4TcI1qmcv2V4WvYsi3XThAi4LEG+5IM80qA6immka4+GAw+oriB0IzUGipla4qT4Mmzj8CWUCxsUwO7eLp5GytrxmXjA2U8dr+5KdbBGJ8yDRi4s6/zO5iip1iO93AKicvUxLN+BxwjqZ3axdOgRB97OBaF7yfWZkDOhYiWGQcE9z7IDcXUVgh+N1I8eiLg2i5Z+BCAuROX7dJUN5aZq/c4n9omYIdKz4K0mk82fkKsTcdfpzdvLbRbFy7WVmFT4lEHvQnxAL7Jc4lOgWBqFR4ReuIYlrBSTtQ/IBLedo/TztS0A24KpnLyMrszMxNp6In2UHKyx/5ub35oKG2SthEEZvmDMgkOZ4214iV8FLdCZYoJ8MsyZa4mYMv658y4vW1envDHi9PyUsAuWqSDu21xL1pSovWdsz9Gsx4EUimYfD+1utZugNIULjZ/zpvikkR5kupS6k5//OlYm+pEAMz35kfhnM/XY4exBBEYX2eklmNHVACuua4/e5RiN8/oautC1/dZ67qqOp21Z0UWiIosD1fTu6s9brJog/ZnC68IjKo/MuQu6usx6BypdviJm9Dfbtdtv1p3ZmPhrMjPB7I82xl91ed+vZ8y99azlaedtpd7uzs5rs/xTUaFOimmcCGlKGK2dZ3xEG2lxVeY35HQEbOcD9X157/xpgy4H3K/yq/PtiS/AWht8GFNarL5C+JWCF1aj0f2rwXYFaDsX/ry6G80B7S8A10Ptvh3mq9gGO8Zb/A1ZDMYbU/nwsQw6L7TLBtWyLYGBgYGBgYGBgYGBgYGBgYGBgYGBgYGBgYGBgYGBgYGCoHP8BVwljXoReWSMAAAAASUVORK5CYII=;" vertex="1" parent="1">
          <mxGeometry x="300" y="330.5" width="219" height="109.5" as="geometry" />
        </mxCell>
        <mxCell id="OHi0hXQzuh8hUmMyIJb7-48" value="" style="endArrow=classic;html=1;rounded=0;" edge="1" parent="1" source="OHi0hXQzuh8hUmMyIJb7-46">
          <mxGeometry width="50" height="50" relative="1" as="geometry">
            <mxPoint x="350" y="350" as="sourcePoint" />
            <mxPoint x="460" y="180" as="targetPoint" />
            <Array as="points">
              <mxPoint x="400" y="495" />
              <mxPoint x="400" y="180" />
            </Array>
          </mxGeometry>
        </mxCell>
        <mxCell id="OHi0hXQzuh8hUmMyIJb7-47" value="" style="endArrow=classic;html=1;rounded=0;entryX=0.5;entryY=0;entryDx=0;entryDy=0;" edge="1" parent="1">
          <mxGeometry width="50" height="50" relative="1" as="geometry">
            <mxPoint x="302" y="320" as="sourcePoint" />
            <mxPoint x="299.9950000000001" y="470" as="targetPoint" />
          </mxGeometry>
        </mxCell>
        <mxCell id="OHi0hXQzuh8hUmMyIJb7-56" value="Google Cloud VM" style="shape=image;verticalLabelPosition=bottom;labelBackgroundColor=default;verticalAlign=top;aspect=fixed;imageAspect=0;image=data:image/png,iVBORw0KGgoAAAANSUhEUgAAAOEAAADhCAMAAAAJbSJIAAAAY1BMVEX///+uy/pmnfZChfSryfqox/pcmPbP4PzM3vyyzvr8/f8/g/TR3/zF1/t2p/czfvNYkfXc5/3i6/2mw/mXtvg5gfRpn/ZJivSMtfhblfX0+P5tofZ2pve60vvB1PsbdfOPsfhzdbxfAAADq0lEQVR4nO3d7VLiMBSAYSkCrVJAXEQ+VO7/KhcaFMhJSgo0mOP7/j4bfMyOM8209OGBiIiIiIiIiGjXcipayik5NL10qejlk77VJJdTq4U1tFhdulT08n5m1R/KqZE9lI3k0FAuhTBGCE0IqxDeKYQmhFUI7xRCE8IqhHcKoQlhFcI7hdCEsArhnUJoQliVtHAthGs59CuET3Zb4ZvVViimRpk1tN1DMTSUS+WOT2wX+NqzeyxEj2KoJ4cKORS01Gu7xKde5971ECJEeG8gQoQIESJEiBAhQoRu4WObtSJc5jXJj/wYtNmHJJb+PsNu1pyKeyAPZYXYwcHVv9K6BuJXWjyPvX29hAnFidehlRS2exom/9MU8+eurzFChAgRIkSIECFChAgRIryhsNkVcHTh9VfAy3zoTX6gSzitOwfxN3DcpeL4wJpTjPL6R07lSZRLmPcuOXQq1psQYfSzNqfQcUR2tmI0/qdaWIxmM9XC7Q52VQu3O9hVLdztoGphtYOahWYHFQv3O6hX+APUKjwAlQqPgDqF339k1AqPd1Cl8GQHNQpPd1Ch0NpBfUJ7B4OF1yumq5Gv9SjonCZEKIGBwmIx8TZ3fL2WS7jwn7W93UroAIYK58/eop0mnhe6gOFC+U/3/R6h+COjTejcQU1C9w4qEnp2UI/Qt4NqhN4d1CIsNr4dVCIs3rOF9wfUICze+9mbl6hAuANmfmL6QgP0E5MXfgO9xNSFB6CPmLjwGOghxhO2cX14CnQT410ftnCNbwOdxGjX+HVdeE4jgS5itHOa2wtdQAcx3bM2N1ASkxX6gIKYqtAPtImJCuuAFjFNYT3wlJik8BzwhJii8DzwmJigMAR4RExPGAY8EJMThgJ/iKkJw4HfxMSETYB7YlrCZkBDTErYFFgRUxJ2GgN3xITu8x5s7Lc7hZRNNpGE1z9vMXi9rDJEeIPnLfQ/M/MHnntCiBAhQoQIESJEiBAhQoQhQvXfm6j/uy/r0vH9pU2FkUOIECFChAgRIkSIECFChL9BKN9h2Wn1HZad2O+wdLwVtJzNrWalfMXoomsNdRdyKGiploGOyrF4Nsdx18hEPMEzuXSp6JXiwV630BpyC0OWih5CE8IGS0UPoQlhg6Wih9CEsMFS0UNoQthgqeghNCFssFT0EJoQNlgqeghNCBssFT2EJoQNlore55e4B9LxY83FnZJzOVTKpT7bB5xt+SJy3AM5FUOOL60KW4qIiIiIiIiI/mT/AX/9ERnAB7JNAAAAAElFTkSuQmCC;" vertex="1" parent="1">
          <mxGeometry x="570" y="351" width="60" height="60" as="geometry" />
        </mxCell>
      </root>
    </mxGraphModel>
  </diagram>
</mxfile>
